<?xml version="1.0" encoding="UTF-8" standalone="no"?>
<svg
   width="114.56364"
   zoomAndPan="magnify"
   viewBox="0 0 85.922733 81.749999"
   height="109"
   preserveAspectRatio="xMidYMid"
   version="1.0"
   id="svg42"
   sodipodi:docname="favicon-irex.svg"
   inkscape:export-filename="favicon-irex.svg"
   inkscape:export-xdpi="96"
   inkscape:export-ydpi="96"
   inkscape:version="1.4 (86a8ad7, 2024-10-11)"
   xmlns:inkscape="http://www.inkscape.org/namespaces/inkscape"
   xmlns:sodipodi="http://sodipodi.sourceforge.net/DTD/sodipodi-0.dtd"
   xmlns="http://www.w3.org/2000/svg"
   xmlns:svg="http://www.w3.org/2000/svg">
  <sodipodi:namedview
     id="namedview42"
     pagecolor="#ffffff"
     bordercolor="#000000"
     borderopacity="0.25"
     inkscape:showpageshadow="2"
     inkscape:pageopacity="0.0"
     inkscape:pagecheckerboard="0"
     inkscape:deskcolor="#d1d1d1"
     inkscape:zoom="3.0555556"
     inkscape:cx="25.363636"
     inkscape:cy="91.8"
     inkscape:window-width="1920"
     inkscape:window-height="1027"
     inkscape:window-x="-8"
     inkscape:window-y="68"
     inkscape:window-maximized="1"
     inkscape:current-layer="svg42" />
  <defs
     id="defs8">
    <clipPath
       id="a8cecf018b">
      <path
         d="m 716,373.85156 h 14 V 423 h -14 z m 0,0"
         clip-rule="nonzero"
         id="path1" />
    </clipPath>
    <clipPath
       id="bb0c3b2dcd">
      <path
         d="m 707.25,405.73047 h 30.97656 v 29.62109 H 707.25 Z m 0,0"
         clip-rule="nonzero"
         id="path2" />
    </clipPath>
    <clipPath
       id="1388d435bc">
      <path
         d="m 708.35156,421.12109 h 28.77735 v 14.23047 h -28.77735 z m 0,0"
         clip-rule="nonzero"
         id="path3" />
    </clipPath>
    <clipPath
       id="67360ebbd2">
      <path
         d="m 739.02734,410.32812 h 15.05078 v 17.58985 h -15.05078 z m 0,0"
         clip-rule="nonzero"
         id="path4" />
    </clipPath>
    <clipPath
       id="17473e722e">
      <path
         d="m 739.02734,410.72656 h 15.05078 v 17.19141 h -15.05078 z m 0,0"
         clip-rule="nonzero"
         id="path5" />
    </clipPath>
    <clipPath
       id="1b9b68079f">
      <path
         d="m 701,373.85156 h 3 V 376 h -3 z m 0,0"
         clip-rule="nonzero"
         id="path6" />
    </clipPath>
    <clipPath
       id="48bf28f626">
      <path
         d="m 742,373.85156 h 3 V 376 h -3 z m 0,0"
         clip-rule="nonzero"
         id="path7" />
    </clipPath>
    <clipPath
       id="56f8782d98">
      <path
         d="M 685.09766,391 H 701 v 20 h -15.90234 z m 0,0"
         clip-rule="nonzero"
         id="path8" />
    </clipPath>
  </defs>
  <g
     clip-path="url(#a8cecf018b)"
     id="g9"
     transform="translate(-677.32497,-362.16133)">
    <path
       fill="#094f94"
       d="m 729.26562,418.22656 v -39.54687 c 0,-2.59766 -2.10546,-4.70313 -4.70703,-4.70313 h -3.42968 c -2.59766,0 -4.70704,2.10547 -4.70704,4.70313 v 39.54687 c 0,2.60156 2.10938,4.70703 4.70704,4.70703 h 3.42968 c 2.60157,0 4.70703,-2.10547 4.70703,-4.70703"
       fill-opacity="1"
       fill-rule="nonzero"
       id="path9" />
  </g>
  <path
     fill="#094f94"
     d="M 63.93675,56.033976 H 26.30784 v -5.8789 h 37.62891 v 5.8789"
     fill-opacity="1"
     fill-rule="nonzero"
     id="path10" />
  <g
     clip-path="url(#bb0c3b2dcd)"
     id="g11"
     transform="translate(-677.32497,-362.16133)">
    <path
       fill="#e0ecf8"
       d="m 738.05859,405.75781 h -30.60156 c 0,0 -1.21484,16.72266 4.48047,23.51172 5.27344,6.28125 10.12891,6.125 10.82031,6.06641 0.69141,0.0586 5.54688,0.21484 10.81641,-6.06641 5.69531,-6.78906 4.48437,-23.51172 4.48437,-23.51172"
       fill-opacity="1"
       fill-rule="nonzero"
       id="path11" />
  </g>
  <g
     clip-path="url(#1388d435bc)"
     id="g12"
     transform="translate(-677.32497,-362.16133)">
    <path
       fill="#c7dae9"
       d="m 733.90234,427.57031 c -5.43359,6.28125 -10.43359,6.125 -11.14453,6.06641 -0.71484,0.0586 -5.71484,0.21484 -11.14453,-6.06641 -1.44531,-1.67578 -2.46094,-3.95312 -3.16797,-6.4375 0.6836,3.12891 1.77344,6.08594 3.49219,8.13672 5.27344,6.28125 10.12891,6.125 10.82031,6.06641 0.69141,0.0586 5.54688,0.21484 10.81641,-6.06641 1.72265,-2.05078 2.80859,-5.00781 3.49219,-8.13672 -0.70704,2.48438 -1.71875,4.76172 -3.16407,6.4375"
       fill-opacity="1"
       fill-rule="nonzero"
       id="path12" />
  </g>
  <path
     fill="#c7dae9"
     d="m 30.06956,44.838666 c 2.20703,2.75781 5.45703,4.5 9.08203,4.5 h 12.73828 c 3.53125,0 6.71094,-1.65234 8.91407,-4.28906 -0.0312,-0.91797 -0.0703,-1.45313 -0.0703,-1.45313 H 30.13208 c 0,0 -0.0352,0.45313 -0.0625,1.24219"
     fill-opacity="1"
     fill-rule="nonzero"
     id="path13" />
  <path
     fill="#c7dae9"
     d="m 33.89769,66.147256 c 1.24218,-1.79687 2.04687,-4.43359 2.10937,-7.39062 h 18.89453 c 0.0625,2.9375 0.85938,5.5625 2.08594,7.35937 0.14062,-0.21093 0.27734,-0.42968 0.40625,-0.65625 -1.08594,-1.73437 -1.76953,-4.25781 -1.76953,-7.07031 0,-5.17969 2.32812,-9.39844 5.19922,-9.45703 0.008,-0.25 0.0117,-0.49219 0.0117,-0.73047 -3.20704,0.0469 -5.82032,4.40625 -5.9336,9.82813 H 36.00704 c -0.11328,-5.44922 -2.75,-9.82422 -5.98047,-9.82813 0.004,0.23438 0.008,0.48047 0.0117,0.72656 2.89453,0.0195 5.24609,4.25391 5.24609,9.46094 0,2.83203 -0.69531,5.37109 -1.79296,7.10938 0.1289,0.22265 0.26562,0.4375 0.40625,0.64843"
     fill-opacity="1"
     fill-rule="nonzero"
     id="path14" />
  <path
     fill="#c7dae9"
     d="m 42.57347,58.393356 c 0,-1.62891 1.32031,-2.94532 2.94531,-2.94532 1.625,0 2.94531,1.31641 2.94531,2.94532 0,1.625 -1.32031,2.94531 -2.94531,2.94531 -1.625,0 -2.94531,-1.32031 -2.94531,-2.94531"
     fill-opacity="1"
     fill-rule="nonzero"
     id="path15" />
  <path
     fill="#094f94"
     d="m 43.47972,58.393356 c 0,-1.125 0.91406,-2.03907 2.03906,-2.03907 1.125,0 2.03906,0.91407 2.03906,2.03907 0,1.125 -0.91406,2.03515 -2.03906,2.03515 -1.125,0 -2.03906,-0.91015 -2.03906,-2.03515"
     fill-opacity="1"
     fill-rule="nonzero"
     id="path16" />
  <g
     clip-path="url(#67360ebbd2)"
     id="g17"
     transform="translate(-677.32497,-362.16133)">
    <path
       fill="#e0ecf8"
       d="m 739.09766,412.46094 0.0937,5.14062 c 0.0273,1.42578 0.76171,2.7461 1.96484,3.51172 l 10.21094,6.51563 c 1.27343,0.8125 2.91797,-0.25 2.6875,-1.74219 -0.61719,-3.98047 -3.0625,-10.5 -11.98047,-15.23438 -1.36328,-0.72265 -3.00391,0.26563 -2.97656,1.8086"
       fill-opacity="1"
       fill-rule="nonzero"
       id="path17" />
  </g>
  <g
     clip-path="url(#17473e722e)"
     id="g18"
     transform="translate(-677.32497,-362.16133)">
    <path
       fill="#c7dae9"
       d="m 752.23828,425.88672 -10.21094,-6.51563 c -1.20312,-0.76562 -1.9414,-2.08593 -1.96484,-3.51172 l -0.0937,-5.08593 c -0.52344,0.35937 -0.88281,0.95703 -0.87109,1.6875 l 0.0937,5.14062 c 0.0273,1.42578 0.76171,2.7461 1.96484,3.51172 l 10.21094,6.51563 c 1.26172,0.80468 2.88281,-0.23047 2.6914,-1.69922 -0.53125,0.30468 -1.21484,0.34375 -1.82031,-0.043"
       fill-opacity="1"
       fill-rule="nonzero"
       id="path18" />
  </g>
  <path
     fill="#c7dae9"
     d="m 26.08909,26.389446 -1.1289,-13.82031 0.375,-0.0586 3.01171,13.87891 h -2.25781"
     fill-opacity="1"
     fill-rule="nonzero"
     id="path19" />
  <g
     clip-path="url(#1b9b68079f)"
     id="g20"
     transform="translate(-677.32497,-362.16133)">
    <path
       fill="#c7dae9"
       d="m 701.59766,374.76172 c 0,-0.50391 0.40625,-0.91016 0.90625,-0.91016 0.5039,0 0.91015,0.40625 0.91015,0.91016 0,0.5 -0.40625,0.91015 -0.91015,0.91015 -0.5,0 -0.90625,-0.41015 -0.90625,-0.91015"
       fill-opacity="1"
       fill-rule="nonzero"
       id="path20" />
  </g>
  <path
     fill="#c7dae9"
     d="m 64.94847,26.389446 1.1289,-13.82031 -0.375,-0.0586 -3.01172,13.87891 h 2.25782"
     fill-opacity="1"
     fill-rule="nonzero"
     id="path21" />
  <g
     clip-path="url(#48bf28f626)"
     id="g22"
     transform="translate(-677.32497,-362.16133)">
    <path
       fill="#c7dae9"
       d="m 744.09375,374.76172 c 0,-0.50391 -0.40625,-0.91016 -0.91016,-0.91016 -0.5039,0 -0.91015,0.40625 -0.91015,0.91016 0,0.5 0.40625,0.91015 0.91015,0.91015 0.50391,0 0.91016,-0.41015 0.91016,-0.91015"
       fill-opacity="1"
       fill-rule="nonzero"
       id="path22" />
  </g>
  <path
     fill="#094f94"
     d="M 65.29222,25.600386 H 25.74925 c -2.59766,0 -4.70703,2.10547 -4.70703,4.70703 v 3.42969 c 0,2.60156 2.10937,4.70703 4.70703,4.70703 h 39.54297 c 2.59765,0 4.70312,-2.10547 4.70312,-4.70703 v -3.42969 c 0,-2.60156 -2.10547,-4.70703 -4.70312,-4.70703"
     fill-opacity="1"
     fill-rule="nonzero"
     id="path23" />
  <path
     fill="#e0ecf8"
     d="M 52.45628,16.330856 H 38.58519 c -7.2461,0 -13.1211,5.87109 -13.1211,13.11718 v 5.14844 c 0,7.2461 5.875,13.1211 13.1211,13.1211 h 13.87109 c 7.24219,0 13.11719,-5.875 13.11719,-13.1211 v -5.14844 c 0,-7.24609 -5.875,-13.11718 -13.11719,-13.11718"
     fill-opacity="1"
     fill-rule="nonzero"
     id="path24" />
  <path
     fill="#c7dae9"
     d="m 60.66331,28.084756 -0.11328,-0.55859 c -0.36719,-1.80859 -1.49219,-3.38672 -3.08203,-4.32422 -1.58985,-0.9375 -3.51172,-1.16016 -5.27344,-0.60937 l -0.19922,0.0625 c -4.29687,1.34375 -8.83984,1.33203 -13.1289,-0.0274 -1.76563,-0.5625 -3.69141,-0.34375 -5.28907,0.59375 -1.59765,0.9375 -2.72265,2.51563 -3.09375,4.32813 l -0.10937,0.53515 c -0.73828,3.61328 0.17578,7.32032 2.50781,10.17578 2.33203,2.85547 5.78125,4.49219 9.46875,4.49219 h 6.33984 c 3.6836,0 7.13672,-1.63672 9.46485,-4.49219 2.33203,-2.85546 3.24609,-6.5625 2.50781,-10.17578"
     fill-opacity="1"
     fill-rule="nonzero"
     id="path25" />
  <path
     fill="#2e3033"
     d="m 59.4719,28.330856 -0.11328,-0.5625 c -0.63281,-3.08594 -3.79297,-4.95313 -6.80078,-4.01172 l -0.19922,0.0625 c -4.51562,1.41015 -9.35156,1.39844 -13.86328,-0.0312 -3.01172,-0.95703 -6.1875,0.91015 -6.8164,4.00781 l -0.10938,0.53516 c -1.39453,6.82031 3.82031,13.20312 10.78125,13.20312 h 6.33984 c 6.96094,0 12.17188,-6.38281 10.78125,-13.20312"
     fill-opacity="1"
     fill-rule="nonzero"
     id="path26" />
  <path
     fill="#ffffff"
     d="m 28.94847,23.510536 c 0,0 3.94922,-6.18359 6.73437,-5.2539 2.78516,0.92969 -3.53125,3.16797 -6.73437,5.2539"
     fill-opacity="1"
     fill-rule="nonzero"
     id="path27" />
  <path
     fill="#ffffff"
     d="m 39.32737,18.162886 c 0,0.4414 -0.35937,0.80078 -0.80078,0.80078 -0.4414,0 -0.80078,-0.35938 -0.80078,-0.80078 0,-0.44141 0.35938,-0.80078 0.80078,-0.80078 0.44141,0 0.80078,0.35937 0.80078,0.80078"
     fill-opacity="1"
     fill-rule="nonzero"
     id="path28" />
  <path
     fill="#ffffff"
     d="m 74.76878,60.506636 c 0,0 -3.39453,-7.70703 -4.56641,-6.54297 -1.17187,1.16406 4.56641,6.54297 4.56641,6.54297"
     fill-opacity="1"
     fill-rule="nonzero"
     id="path29" />
  <path
     fill="#ffde1a"
     d="m 45.51878,37.604286 c -1.35156,0 -2.70313,-0.36718 -4.04688,-1.10156 -0.44531,-0.24219 -0.60546,-0.79687 -0.36328,-1.24219 0.24219,-0.4414 0.79688,-0.60156 1.23828,-0.35937 2.13282,1.16797 4.21094,1.16797 6.34375,0 0.44141,-0.24219 1,-0.082 1.23829,0.35937 0.24218,0.44532 0.082,1 -0.35938,1.24219 -1.34375,0.73438 -2.69531,1.10156 -4.05078,1.10156"
     fill-opacity="1"
     fill-rule="nonzero"
     id="path30" />
  <path
     fill="#e0ecf8"
     d="m 28.56956,55.608196 0.37109,-5.13281 c 0.10157,-1.42188 -0.51562,-2.80078 -1.64453,-3.67188 l -9.58593,-7.40625 c -1.19141,-0.92578 -2.92579,-0.0156 -2.82813,1.49219 0.25781,4.01953 2.10547,10.73047 10.5625,16.25 1.29297,0.84375 3.01563,0.008 3.125,-1.53125"
     fill-opacity="1"
     fill-rule="nonzero"
     id="path31" />
  <path
     fill="#c7dae9"
     d="m 28.94065,50.475386 c 0.0625,-0.89844 -0.16015,-1.78125 -0.62109,-2.53125 l -0.26562,3.71094 c -0.11329,1.53906 -1.83594,2.375 -3.12891,1.53125 -6.36328,-4.14844 -8.98438,-8.97657 -10,-12.82422 -0.0391,0.16406 -0.0547,0.33984 -0.043,0.52734 0.25781,4.01953 2.10547,10.73047 10.5625,16.25 1.29297,0.84375 3.01563,0.008 3.125,-1.53125 l 0.37109,-5.13281"
     fill-opacity="1"
     fill-rule="nonzero"
     id="path32" />
  <path
     fill="#ffde1a"
     d="m 38.44065,30.553506 c 0,-0.88672 0.71485,-1.60156 1.60157,-1.60156 0.88281,0 1.60156,0.71484 1.60156,1.60156 0,0.88672 -0.71875,1.60157 -1.60156,1.60157 -0.88672,0 -1.60157,-0.71485 -1.60157,-1.60157"
     fill-opacity="1"
     fill-rule="nonzero"
     id="path33" />
  <path
     fill="#ffde1a"
     d="m 49.2219,30.553506 c 0,-0.88672 0.71485,-1.60156 1.60157,-1.60156 0.88281,0 1.60156,0.71484 1.60156,1.60156 0,0.88672 -0.71875,1.60157 -1.60156,1.60157 -0.88672,0 -1.60157,-0.71485 -1.60157,-1.60157"
     fill-opacity="1"
     fill-rule="nonzero"
     id="path34" />
  <g
     clip-path="url(#56f8782d98)"
     id="g35"
     transform="translate(-677.32497,-362.16133)">
    <path
       fill="#0083db"
       d="M 700.19922,406.88281 696.4375,392.5625 c -0.19531,-0.73828 -0.95313,-1.17969 -1.69141,-0.98438 l -8.44531,2.21875 c -0.73828,0.19532 -1.17969,0.95313 -0.98828,1.69141 l 3.76562,14.32031 c 0.19532,0.73828 0.94922,1.17969 1.69141,0.98438 l 8.44531,-2.21875 c 0.73828,-0.19531 1.17969,-0.95313 0.98438,-1.69141"
       fill-opacity="1"
       fill-rule="nonzero"
       id="path35" />
  </g>
  <path
     fill="#094f94"
     d="M 21.29612,43.998826 18.093,31.811326 c -0.14063,-0.53125 -0.67969,-0.84375 -1.21094,-0.70704 l -6.60937,1.73829 c -0.5273496,0.14062 -0.8437496,0.67968 -0.7031296,1.20703 l 3.2031296,12.1875 c 0.14062,0.53125 0.67968,0.84375 1.20703,0.70703 l 6.60937,-1.73828 c 0.53125,-0.14063 0.84375,-0.67969 0.70703,-1.20703"
     fill-opacity="1"
     fill-rule="nonzero"
     id="path36" />
  <path
     fill="#e0ecf8"
     d="m 17.04612,39.842576 -4.89062,1.28906 -0.23438,-0.88281 4.89453,-1.28516 0.23047,0.87891"
     fill-opacity="1"
     fill-rule="nonzero"
     id="path37" />
  <path
     fill="#e0ecf8"
     d="m 15.36253,38.619916 -3.61719,0.95312 -0.23047,-0.88281 3.61719,-0.94922 0.23047,0.87891"
     fill-opacity="1"
     fill-rule="nonzero"
     id="path38" />
  <path
     fill="#e0ecf8"
     d="m 14.22972,37.252726 -2.89453,0.76172 -0.23047,-0.87891 2.89453,-0.76171 0.23047,0.8789"
     fill-opacity="1"
     fill-rule="nonzero"
     id="path39" />
  <path
     fill="#e0ecf8"
     d="m 17.80784,33.483196 -3.35547,0.88281 -0.23047,-0.88281 3.35547,-0.88281 0.23047,0.88281"
     fill-opacity="1"
     fill-rule="nonzero"
     id="path40" />
  <path
     fill="#e0ecf8"
     d="m 20.01878,41.893356 -3.35547,0.88281 -0.23047,-0.88281 3.35547,-0.88282 0.23047,0.88282"
     fill-opacity="1"
     fill-rule="nonzero"
     id="path41" />
  <path
     fill="#e0ecf8"
     d="m 20.45628,43.561326 -4.71875,1.24218 -0.23438,-0.88281 4.72266,-1.23828 0.23047,0.87891"
     fill-opacity="1"
     fill-rule="nonzero"
     id="path42" />
  <rect
     style="fill:#000000;fill-opacity:0;stroke:#000000;stroke-width:0.725549;stroke-opacity:0.05"
     id="rect42"
     width="85.197182"
     height="81.024452"
     x="0.36277449"
     y="0.36277449" />
</svg>
