<?xml version="1.0" encoding="UTF-8" standalone="no"?>
<svg
   width="54.25"
   zoomAndPan="magnify"
   viewBox="0 0 26.680332 8.0225422"
   height="16.3125"
   preserveAspectRatio="xMidYMid"
   version="1.0"
   id="svg82"
   xmlns="http://www.w3.org/2000/svg"
   xmlns:svg="http://www.w3.org/2000/svg"
   xmlns:rdf="http://www.w3.org/1999/02/22-rdf-syntax-ns#"
   xmlns:cc="http://creativecommons.org/ns#"
   xmlns:dc="http://purl.org/dc/elements/1.1/">
  <title
     id="title83">Test</title>
  <defs
     id="defs13">
    <clipPath
       id="c46961be11">
      <path
         d="m 462.29507,262.0466 h 1.96722 v 5.49436 h -1.96722 z m 0,0"
         clip-rule="nonzero"
         id="path1"
         style="stroke-width:0.655738" />
    </clipPath>
    <clipPath
       id="a7283dace4">
      <path
         d="m 461.96208,265.36117 h 3.08913 v 3.07887 h -3.08913 z m 0,0"
         clip-rule="nonzero"
         id="path2"
         style="stroke-width:0.655738" />
    </clipPath>
    <clipPath
       id="052b781686">
      <path
         d="m 462.07222,266.95951 h 2.87142 v 1.48053 h -2.87142 z m 0,0"
         clip-rule="nonzero"
         id="path3"
         style="stroke-width:0.655738" />
    </clipPath>
    <clipPath
       id="62db027ade">
      <path
         d="m 465.13319,265.83758 h 1.49846 v 1.8289 h -1.49846 z m 0,0"
         clip-rule="nonzero"
         id="path4"
         style="stroke-width:0.655738" />
    </clipPath>
    <clipPath
       id="d91c6d1e5b">
      <path
         d="m 465.13319,265.88113 h 1.49846 v 1.78535 h -1.49846 z m 0,0"
         clip-rule="nonzero"
         id="path5"
         style="stroke-width:0.655738" />
    </clipPath>
    <clipPath
       id="6f30075ac4">
      <path
         d="m 460.98361,262.04659 h 1.31146 v 1.55996 h -1.31146 z m 0,0"
         clip-rule="nonzero"
         id="path6"
         style="stroke-width:0.655738" />
    </clipPath>
    <clipPath
       id="893d5994fc">
      <path
         d="m 460.98361,262.04659 h 0.65573 v 0.24847 h -0.65573 z m 0,0"
         clip-rule="nonzero"
         id="path7"
         style="stroke-width:0.655738" />
    </clipPath>
    <clipPath
       id="6f00084873">
      <path
         d="m 464.91803,262.04659 h 0.65572 v 1.55996 h -0.65572 z m 0,0"
         clip-rule="nonzero"
         id="path8"
         style="stroke-width:0.655738" />
    </clipPath>
    <clipPath
       id="9384f4491e">
      <path
         d="m 464.91803,262.04659 h 1.31148 v 0.24847 h -1.31148 z m 0,0"
         clip-rule="nonzero"
         id="path9"
         style="stroke-width:0.655738" />
    </clipPath>
    <clipPath
       id="d2ce7a7e72">
      <path
         d="m 465.57375,266.22949 h 1.06303 v 1.31147 h -1.06303 z m 0,0"
         clip-rule="nonzero"
         id="path10"
         style="stroke-width:0.655738" />
    </clipPath>
    <clipPath
       id="0698aa9630">
      <path
         d="m 459.75153,263.60656 h 1.88781 v 2.62293 h -1.88781 z m 0,0"
         clip-rule="nonzero"
         id="path11"
         style="stroke-width:0.655738" />
    </clipPath>
    <clipPath
       id="5e4b2a9abb">
      <path
         d="m 459.75153,264.2623 h 1.23208 v 1.31144 h -1.23208 z m 0,0"
         clip-rule="nonzero"
         id="path12"
         style="stroke-width:0.655738" />
    </clipPath>
    <clipPath
       id="98ca719308">
      <path
         d="m 459.75153,264.26229 h 1.23208 v 0.65573 h -1.23208 z m 0,0"
         clip-rule="nonzero"
         id="path13"
         style="stroke-width:0.655738" />
    </clipPath>
    <clipPath
       clipPathUnits="userSpaceOnUse"
       id="clipPath82">
      <rect
         style="fill:#000000;fill-opacity:0.0532213;stroke-width:0.75"
         id="rect83"
         width="40.6875"
         height="12.234375"
         x="699.60938"
         y="398.29688"
         clip-path="none" />
    </clipPath>
  </defs>
  <rect
     x="-68.826294"
     width="1728"
     fill="#ffffff"
     y="-51.992844"
     height="972"
     fill-opacity="1"
     id="rect13"
     clip-path="url(#clipPath82)"
     transform="matrix(0.65573771,0,0,0.65573764,-458.76023,-261.17825)"
     style="fill:#ffffff;fill-opacity:1" />
  <g
     clip-path="url(#c46961be11)"
     id="g14"
     transform="translate(-458.76024,-261.17826)">
    <path
       fill="#094f94"
       d="m 464.15727,266.65982 v -4.11115 c 0,-0.26896 -0.21005,-0.48926 -0.46875,-0.48926 h -0.34067 c -0.26128,0 -0.47132,0.2203 -0.47132,0.48926 v 4.11115 c 0,0.26896 0.21004,0.48924 0.47132,0.48924 h 0.34067 c 0.2587,0 0.46875,-0.22028 0.46875,-0.48924"
       fill-opacity="1"
       fill-rule="nonzero"
       id="path14"
       style="stroke-width:0.655738" />
  </g>
  <path
     fill="#094f94"
     d="M 6.5958,5.4789929 H 2.8406787 V 4.8668032 H 6.5958 v 0.6121897"
     fill-opacity="1"
     fill-rule="nonzero"
     id="path15"
     style="stroke-width:0.655738" />
  <g
     clip-path="url(#a7283dace4)"
     id="g16"
     transform="translate(-458.76024,-261.17826)">
    <path
       fill="#e0ecf8"
       d="m 465.03587,265.36373 h -3.05329 c 0,0 -0.12041,1.73922 0.44826,2.44363 0.5251,0.65317 1.00922,0.63781 1.07838,0.63012 0.0691,0.009 0.55327,0.0231 1.07838,-0.63012 0.56864,-0.70441 0.44827,-2.44363 0.44827,-2.44363"
       fill-opacity="1"
       fill-rule="nonzero"
       id="path16"
       style="stroke-width:0.655738" />
  </g>
  <g
     clip-path="url(#052b781686)"
     id="g17"
     transform="translate(-458.76024,-261.17826)">
    <path
       fill="#c7dae9"
       d="m 464.6209,267.63061 c -0.54303,0.65318 -1.03996,0.63781 -1.11168,0.63013 -0.0717,0.009 -0.56866,0.0229 -1.11169,-0.63013 -0.14342,-0.17418 -0.2459,-0.40983 -0.31505,-0.66854 0.0666,0.32532 0.17674,0.63268 0.34836,0.84529 0.5251,0.65317 1.00922,0.63781 1.07838,0.63012 0.0691,0.009 0.55327,0.0231 1.07838,-0.63012 0.17162,-0.21261 0.28176,-0.51997 0.34836,-0.84529 -0.0691,0.25871 -0.17161,0.49436 -0.31506,0.66854"
       fill-opacity="1"
       fill-rule="nonzero"
       id="path17"
       style="stroke-width:0.655738" />
  </g>
  <path
     fill="#c7dae9"
     d="m 3.2172098,4.3135242 c 0.2202885,0.2868853 0.543036,0.4687476 0.9042032,0.4687476 h 1.2704916 c 0.3534823,0 0.6711086,-0.1716196 0.891397,-0.4456918 -0.00524,-0.094781 -0.00767,-0.1511279 -0.00767,-0.1511279 H 3.2223508 c 0,0 -0.00262,0.046098 -0.00524,0.1280721"
     fill-opacity="1"
     fill-rule="nonzero"
     id="path18"
     style="stroke-width:0.655738" />
  <path
     fill="#c7dae9"
     d="M 3.5988754,6.5292027 C 3.7218261,6.3422125 3.8037934,6.0681337 3.8089146,5.7607569 h 1.885246 C 5.6994006,6.0655698 5.7786856,6.3396487 5.901636,6.5266387 5.914424,6.5035577 5.929834,6.4805407 5.94262,6.4574777 5.8350393,6.278173 5.7658786,6.0143434 5.7658786,5.7223372 c 0,-0.5379144 0.2305378,-0.9759209 0.517423,-0.9836061 0.00262,-0.025639 0.00262,-0.051213 0.00262,-0.074282 C 5.9657423,4.6696891 5.7044701,5.1229474 5.6942274,5.686475 H 3.8089802 C 3.7987502,5.12039 3.5349016,4.6644492 3.2121541,4.6644492 c 0,0.023016 0.00262,0.048655 0.00262,0.074282 0.2868855,0.00262 0.5225377,0.4431344 0.5225377,0.983606 0,0.2945703 -0.069161,0.5583998 -0.1792982,0.7402622 0.012787,0.023082 0.025639,0.046098 0.040983,0.066604"
     fill-opacity="1"
     fill-rule="nonzero"
     id="path19"
     style="stroke-width:0.655738" />
  <path
     fill="#c7dae9"
     d="m 4.4646525,5.7223372 c 0,-0.1690623 0.1306359,-0.3048197 0.2920064,-0.3048197 0.1639344,0 0.2945705,0.1357574 0.2945705,0.3048197 0,0.1690557 -0.1306361,0.3073768 -0.2945705,0.3073768 -0.1613705,0 -0.2920064,-0.1383211 -0.2920064,-0.3073768"
     fill-opacity="1"
     fill-rule="nonzero"
     id="path20"
     style="stroke-width:0.655738" />
  <path
     fill="#094f94"
     d="m 4.5543048,5.7223372 c 0,-0.1152656 0.09221,-0.210046 0.2023541,-0.210046 0.1127081,0 0.204918,0.094781 0.204918,0.210046 0,0.1178229 -0.09221,0.2126032 -0.204918,0.2126032 -0.1101443,0 -0.2023541,-0.094781 -0.2023541,-0.2126032"
     fill-opacity="1"
     fill-rule="nonzero"
     id="path21"
     style="stroke-width:0.655738" />
  <g
     clip-path="url(#62db027ade)"
     id="g22"
     transform="translate(-458.76024,-261.17826)">
    <path
       fill="#e0ecf8"
       d="m 465.13833,266.06043 0.0103,0.53535 c 0.004,0.14858 0.0769,0.28433 0.19467,0.36373 l 1.01946,0.67879 c 0.12806,0.0846 0.292,-0.0282 0.26894,-0.18187 -0.0615,-0.41495 -0.30736,-1.09118 -1.19619,-1.58297 -0.13575,-0.0769 -0.29968,0.0257 -0.29713,0.18697"
       fill-opacity="1"
       fill-rule="nonzero"
       id="path22"
       style="stroke-width:0.655738" />
  </g>
  <g
     clip-path="url(#d91c6d1e5b)"
     id="g23"
     transform="translate(-458.76024,-261.17826)">
    <path
       fill="#c7dae9"
       d="m 466.44979,267.45643 -1.01947,-0.67878 c -0.11782,-0.0795 -0.19211,-0.21517 -0.19467,-0.36373 l -0.0103,-0.53024 c -0.0512,0.0384 -0.0871,0.0999 -0.0871,0.17675 l 0.0103,0.53535 c 0.004,0.14858 0.0769,0.28433 0.19467,0.36373 l 1.01945,0.67879 c 0.12552,0.082 0.28691,-0.0257 0.26897,-0.17673 -0.0537,0.0307 -0.12295,0.0358 -0.18187,-0.007"
       fill-opacity="1"
       fill-rule="nonzero"
       id="path23"
       style="stroke-width:0.655738" />
  </g>
  <g
     clip-path="url(#6f30075ac4)"
     id="g24"
     transform="translate(-458.76024,-261.17826)">
    <path
       fill="#c7dae9"
       d="m 461.58043,263.57581 -0.11272,-1.43699 0.0383,-0.009 0.29969,1.44467 h -0.22541"
       fill-opacity="1"
       fill-rule="nonzero"
       id="path24"
       style="stroke-width:0.655738" />
  </g>
  <g
     clip-path="url(#893d5994fc)"
     id="g25"
     transform="translate(-458.76024,-261.17826)">
    <path
       fill="#c7dae9"
       d="m 461.39856,262.14138 c 0,-0.0513 0.041,-0.0948 0.0922,-0.0948 0.0487,0 0.0897,0.0437 0.0897,0.0948 0,0.0512 -0.041,0.0948 -0.0897,0.0948 -0.0512,0 -0.0922,-0.0436 -0.0922,-0.0948"
       fill-opacity="1"
       fill-rule="nonzero"
       id="path25"
       style="stroke-width:0.655738" />
  </g>
  <g
     clip-path="url(#6f00084873)"
     id="g26"
     transform="translate(-458.76024,-261.17826)">
    <path
       fill="#c7dae9"
       d="m 465.45593,263.57581 0.11271,-1.43699 -0.0383,-0.009 -0.2997,1.44467 h 0.22542"
       fill-opacity="1"
       fill-rule="nonzero"
       id="path26"
       style="stroke-width:0.655738" />
  </g>
  <g
     clip-path="url(#9384f4491e)"
     id="g27"
     transform="translate(-458.76024,-261.17826)">
    <path
       fill="#c7dae9"
       d="m 465.6378,262.14138 c 0,-0.0513 -0.0411,-0.0948 -0.0922,-0.0948 -0.0486,0 -0.0897,0.0437 -0.0897,0.0948 0,0.0512 0.0409,0.0948 0.0897,0.0948 0.0512,0 0.0922,-0.0436 0.0922,-0.0948"
       fill-opacity="1"
       fill-rule="nonzero"
       id="path27"
       style="stroke-width:0.655738" />
  </g>
  <path
     fill="#094f94"
     d="M 6.7289935,2.3155702 H 2.7868819 c -0.2612657,0 -0.4713116,0.2177311 -0.4713116,0.4892458 v 0.356046 c 0,0.268951 0.2100459,0.4892395 0.4713116,0.4892395 h 3.9421116 c 0.2587081,0 0.468754,-0.2202885 0.468754,-0.4892395 V 2.804816 c 0,-0.2715147 -0.2100459,-0.4892458 -0.468754,-0.4892458"
     fill-opacity="1"
     fill-rule="nonzero"
     id="path28"
     style="stroke-width:0.655738" />
  <path
     fill="#e0ecf8"
     d="M 5.4482587,1.3498983 H 4.065059 c -0.7223344,0 -1.3063477,0.6121901 -1.3063477,1.3652653 v 0.535351 c 0,0.7530687 0.5840133,1.3627014 1.3063477,1.3627014 h 1.3831997 c 0.7248987,0 1.3089117,-0.6096327 1.3089117,-1.3627014 v -0.535351 c 0,-0.7530752 -0.584013,-1.3652653 -1.3089117,-1.3652653"
     fill-opacity="1"
     fill-rule="nonzero"
     id="path29"
     style="stroke-width:0.655738" />
  <path
     fill="#c7dae9"
     d="m 6.2679312,2.5717211 -0.01023,-0.056328 C 6.2192751,2.3258455 6.1091373,2.1619111 5.9503242,2.0645733 5.7915176,1.9672356 5.5994061,1.9441865 5.4226649,2.0005732 l -0.017967,0.00767 C 4.9743703,2.1491309 4.5209933,2.146567 4.0932228,2.0056228 3.9190458,1.946672 3.7269345,1.969754 3.5655574,2.0670652 3.4067508,2.164403 3.2940426,2.3283374 3.2581804,2.5178849 l -0.01023,0.05377 c -0.074282,0.376538 0.017903,0.7607609 0.248466,1.0578888 0.2330885,0.2971342 0.5788918,0.4687473 0.9451803,0.4687473 h 0.6326882 c 0.3662886,0 0.7120854,-0.1716131 0.9426232,-0.4687475 C 6.2499965,3.3324162 6.3422129,2.9481932 6.267931,2.5716554"
     fill-opacity="1"
     fill-rule="nonzero"
     id="path30"
     style="stroke-width:0.655738" />
  <path
     fill="#2e3033"
     d="M 6.1501017,2.5973343 6.1373144,2.5410064 C 6.0758722,2.2182653 5.7607771,2.0261539 5.4610849,2.1234915 l -0.020459,0.00524 C 4.9898064,2.2747374 4.5082458,2.2747374 4.0574261,2.1261145 3.7577344,2.0262193 3.4401147,2.2208884 3.3760753,2.5436358 l -0.010228,0.05377 C 3.2275255,3.3069343 3.7475057,3.9703572 4.4416631,3.9703572 h 0.6326885 c 0.6941574,0 1.2141378,-0.6634229 1.0758165,-1.3729507"
     fill-opacity="1"
     fill-rule="nonzero"
     id="path31"
     style="stroke-width:0.655738" />
  <path
     fill="#ffffff"
     d="m 3.1045084,2.0978457 c 0,0 0.3944654,-0.6429312 0.671108,-0.5455932 0.2792,0.094774 -0.3509245,0.3278686 -0.671108,0.5455932"
     fill-opacity="1"
     fill-rule="nonzero"
     id="path32"
     style="stroke-width:0.655738" />
  <path
     fill="#ffffff"
     d="m 4.1393409,1.5420097 c 0,0.046098 -0.035869,0.081967 -0.079403,0.081967 -0.043541,0 -0.079403,-0.035869 -0.079403,-0.081967 0,-0.046098 0.035869,-0.084532 0.079403,-0.084532 0.043542,0 0.079403,0.038426 0.079403,0.084532"
     fill-opacity="1"
     fill-rule="nonzero"
     id="path33"
     style="stroke-width:0.655738" />
  <g
     clip-path="url(#d2ce7a7e72)"
     id="g34"
     transform="translate(-458.76024,-261.17826)">
    <path
       fill="#ffffff"
       d="m 466.43442,267.12088 c 0,0 -0.33811,-0.80173 -0.45593,-0.67879 -0.11528,0.12039 0.45593,0.67879 0.45593,0.67879"
       fill-opacity="1"
       fill-rule="nonzero"
       id="path34"
       style="stroke-width:0.655738" />
  </g>
  <path
     fill="#ffde1a"
     d="m 4.756659,3.5630129 c -0.1331934,0 -0.2689574,-0.038426 -0.4021507,-0.1152656 -0.043541,-0.025639 -0.061444,-0.081967 -0.03587,-0.1280787 0.023082,-0.046098 0.079411,-0.064001 0.1229508,-0.038426 0.2126033,0.120387 0.4200852,0.120387 0.6326885,0 0.043541,-0.025639 0.099895,-0.00767 0.1229508,0.038426 0.025639,0.046098 0.00767,0.1024591 -0.035869,0.1280787 C 5.02816,3.5245863 4.8924026,3.5630129 4.7566452,3.5630129"
     fill-opacity="1"
     fill-rule="nonzero"
     id="path35"
     style="stroke-width:0.655738" />
  <path
     fill="#e0ecf8"
     d="M 3.0686459,5.432888 3.1045149,4.9001016 C 3.1147443,4.7515376 3.0533017,4.608095 2.9405804,4.5184424 L 1.9851506,3.7474391 c -0.1203934,-0.094774 -0.2920064,0 -0.2817639,0.1562492 0.025639,0.4175215 0.2074818,1.1168001 1.0527673,1.6905702 0.1280722,0.087095 0.299692,0 0.3124985,-0.1613705"
     fill-opacity="1"
     fill-rule="nonzero"
     id="path36"
     style="stroke-width:0.655738" />
  <path
     fill="#c7dae9"
     d="M 3.1045083,4.9001016 C 3.1097483,4.8078916 3.0891643,4.7156754 3.0430653,4.636272 L 3.0148687,5.0230523 C 3.0046397,5.1818654 2.8330067,5.2689539 2.7049279,5.1818654 2.0696819,4.7515376 1.8084161,4.2494853 1.7059572,3.8498982 c -0.00262,0.015343 -0.00524,0.03587 -0.00262,0.053769 0.025639,0.4175215 0.2074818,1.1168 1.0527673,1.6905701 0.1280722,0.087095 0.2996919,0 0.3124983,-0.1613705 L 3.1044718,4.900081"
     fill-opacity="1"
     fill-rule="nonzero"
     id="path37"
     style="stroke-width:0.655738" />
  <path
     fill="#ffde1a"
     d="m 4.0522525,2.8304293 c 0,-0.09221 0.071725,-0.1664983 0.1588129,-0.1664983 0.089653,0 0.1613707,0.074289 0.1613707,0.1664983 0,0.089653 -0.071718,0.1664984 -0.1613707,0.1664984 -0.087088,0 -0.1588129,-0.076846 -0.1588129,-0.1664984"
     fill-opacity="1"
     fill-rule="nonzero"
     id="path38"
     style="stroke-width:0.655738" />
  <path
     fill="#ffde1a"
     d="m 5.1280753,2.8304293 c 0,-0.09221 0.069161,-0.1664983 0.1588064,-0.1664983 0.087095,0 0.1588132,0.074289 0.1588132,0.1664983 0,0.089653 -0.071718,0.1664984 -0.1588132,0.1664984 -0.089645,0 -0.1588064,-0.076846 -0.1588064,-0.1664984"
     fill-opacity="1"
     fill-rule="nonzero"
     id="path39"
     style="stroke-width:0.655738" />
  <g
     clip-path="url(#0698aa9630)"
     id="g41"
     transform="translate(-458.76024,-261.17826)">
    <path
       fill="#0083db"
       d="m 461.26025,265.48153 -0.37654,-1.49076 c -0.018,-0.0769 -0.0948,-0.12295 -0.16907,-0.10244 l -0.84017,0.23309 c -0.0742,0.018 -0.11781,0.0973 -0.0999,0.17417 l 0.37654,1.4882 c 0.0179,0.0769 0.0948,0.12295 0.16905,0.10246 l 0.84018,-0.23054 c 0.0743,-0.0203 0.11783,-0.0973 0.0999,-0.17418"
       fill-opacity="1"
       fill-rule="nonzero"
       id="path40"
       style="stroke-width:0.655738" />
    <path
       fill="#094f94"
       d="m 461.10143,265.40469 -0.31762,-1.26534 c -0.0153,-0.0564 -0.0691,-0.0897 -0.12039,-0.0743 l -0.66087,0.17929 c -0.0512,0.0153 -0.0845,0.0717 -0.0691,0.12809 l 0.31761,1.26535 c 0.0153,0.0564 0.0691,0.0871 0.12296,0.0743 l 0.6583,-0.18188 c 0.0512,-0.0128 0.0846,-0.0691 0.0691,-0.12551"
       fill-opacity="1"
       fill-rule="nonzero"
       id="path41"
       style="stroke-width:0.655738" />
  </g>
  <g
     clip-path="url(#5e4b2a9abb)"
     id="g43"
     transform="translate(-458.76024,-261.17826)">
    <path
       fill="#e0ecf8"
       d="m 460.67878,264.97438 -0.48924,0.13318 -0.0229,-0.0922 0.48926,-0.13319 0.023,0.0922"
       fill-opacity="1"
       fill-rule="nonzero"
       id="path42"
       style="stroke-width:0.655738" />
    <path
       fill="#e0ecf8"
       d="m 460.50973,264.8463 -0.36117,0.0999 -0.023,-0.0922 0.36118,-0.0999 0.023,0.0922"
       fill-opacity="1"
       fill-rule="nonzero"
       id="path43"
       style="stroke-width:0.655738" />
  </g>
  <g
     clip-path="url(#98ca719308)"
     id="g44"
     transform="translate(-458.76024,-261.17826)">
    <path
       fill="#e0ecf8"
       d="m 460.39703,264.70543 -0.28946,0.0769 -0.023,-0.0897 0.28944,-0.0794 0.0231,0.0922"
       fill-opacity="1"
       fill-rule="nonzero"
       id="path44"
       style="stroke-width:0.655738" />
  </g>
  <path
     fill="#e0ecf8"
     d="m 1.9928294,3.1326849 -0.3329967,0.09221 -0.023082,-0.09221 0.3329901,-0.089653 0.023082,0.089653"
     fill-opacity="1"
     fill-rule="nonzero"
     id="path45"
     style="stroke-width:0.655738" />
  <path
     fill="#e0ecf8"
     d="m 2.2156753,4.0087112 -0.3355542,0.09221 -0.023016,-0.09221 0.3355476,-0.092216 0.023082,0.092216"
     fill-opacity="1"
     fill-rule="nonzero"
     id="path46"
     style="stroke-width:0.655738" />
  <path
     fill="#e0ecf8"
     d="m 2.2592228,4.1828882 -0.4713116,0.1280723 -0.023082,-0.09221 0.4713115,-0.1280721 0.023082,0.09221"
     fill-opacity="1"
     fill-rule="nonzero"
     id="path47"
     style="stroke-width:0.655738" />
  <g
     fill="#000000"
     fill-opacity="1"
     id="g82"
     transform="translate(-458.76024,-261.17826)">
    <g
       transform="translate(468.2028,265.80239)"
       id="g49">
      <g
         id="g48">
        <path
           d="m 0.25614753,-1.0553277 c -0.0409836,0 -0.076844,-0.012807 -0.10245903,-0.040985 -0.0281764,-0.025615 -0.0409836,-0.061475 -0.0409836,-0.102459 0,-0.040985 0.0128073,-0.071722 0.0409836,-0.092213 0.0256151,-0.025614 0.0614754,-0.040984 0.10245903,-0.040984 0.025615,0 0.0512294,0.00769 0.0717213,0.020491 0.0204918,0.00769 0.035861,0.020492 0.0512294,0.040984 0.0128072,0.020491 0.0204918,0.046107 0.0204918,0.071722 0,0.028176 -0.007684,0.051229 -0.0204918,0.071721 -0.0153686,0.020492 -0.0307377,0.038423 -0.0512294,0.051229 -0.0204918,0.015368 -0.0461062,0.020491 -0.0717213,0.020491 z M 0.1331967,0 V -0.94262288 H 0.36885245 V 0 Z m 0,0"
           id="path48"
           style="stroke-width:0.655738" />
      </g>
    </g>
    <g
       transform="translate(468.71174,265.80239)"
       id="g51">
      <g
         id="g50">
        <path
           d="m 0.16393442,0 v -1.2499998 h 0.5020492 c 0.12807404,0 0.22540977,0.030737 0.28688525,0.092213 0.0665981,0.056351 0.10245893,0.1383193 0.10245893,0.24590149 0,0.076844 -0.020491,0.13831927 -0.0614753,0.18442614 -0.0358602,0.0486682 -0.0896518,0.0870905 -0.16393432,0.11270494 v 0.0204918 c 0.0332991,0.0153692 0.0640366,0.0384222 0.092213,0.0717213 0.0256138,0.0358603 0.0512294,0.0870905 0.0717219,0.15368853 L 1.1168031,0 H 0.86065569 L 0.7377049,-0.36885244 C 0.7223355,-0.40983604 0.7095287,-0.44057374 0.6967213,-0.46106564 0.6813521,-0.48155744 0.6608603,-0.49436444 0.635246,-0.50204924 0.6147542,-0.51485654 0.5840166,-0.52254104 0.5430329,-0.52254104 H 0.40983605 V 0 Z M 0.6352459,-0.71721304 c 0.11526623,0 0.17418028,-0.0537909 0.17418028,-0.16393442 0,-0.11526618 -0.0589142,-0.17418034 -0.17418028,-0.17418034 H 0.40983605 v 0.33811476 z m 0,0"
           id="path49"
           style="stroke-width:0.655738" />
      </g>
    </g>
    <g
       transform="translate(469.88295,265.80239)"
       id="g53">
      <g
         id="g52">
        <path
           d="m 0.40983605,-0.55327863 v 0.34836064 H 1.0040982 V 0 H 0.16393442 v -1.2499998 h 0.82991792 v 0.2049181 H 0.40983605 v 0.29713092 h 0.51229504 v 0.19467215 z m 0,0"
           id="path51"
           style="stroke-width:0.655738" />
      </g>
    </g>
    <g
       transform="translate(470.95993,265.80239)"
       id="g55">
      <g
         id="g54">
        <path
           d="M 0.27663933,0 H 0.02049181 L 0.38934425,-0.64549174 0.04098359,-1.2499998 h 0.25614756 l 0.26639343,0.45081952 h 0.0204919 L 0.85040987,-1.2499998 H 1.0963114 L 0.74795081,-0.64549174 1.1168031,0 H 0.8504098 L 0.57377049,-0.48155737 h -0.0204918 z m 0,0"
           id="path53"
           style="stroke-width:0.655738" />
      </g>
    </g>
    <g
       transform="translate(472.09688,265.80239)"
       id="g57">
      <g
         id="g56" />
    </g>
    <g
       transform="translate(472.5107,265.80239)"
       id="g59">
      <g
         id="g58">
        <path
           d="M 1.1987703,0 H 0.94262291 L 0.8504098,-0.28688521 H 0.36885245 L 0.27663933,0 H 0.02049181 L 0.45081967,-1.2499998 H 0.76844259 Z M 0.59426229,-0.99385233 0.43032786,-0.49180327 H 0.77868845 L 0.61475411,-0.99385233 Z m 0,0"
           id="path57"
           style="stroke-width:0.655738" />
      </g>
    </g>
    <g
       transform="translate(473.73161,265.80239)"
       id="g61">
      <g
         id="g60">
        <path
           d="m 0.47131147,0.02049181 c -0.0768446,0 -0.14344263,-0.01793033 -0.20491805,-0.05122953 C 0.21004062,-0.07172131 0.16649573,-0.12551211 0.1331967,-0.19467211 0.09733645,-0.2689547 0.08196721,-0.36116785 0.08196721,-0.47131147 c 0,-0.10758158 0.01536922,-0.19723338 0.05122949,-0.26639341 0.033299,-0.0742827 0.076844,-0.12807343 0.13319672,-0.16393441 0.0614753,-0.0409845 0.13319674,-0.0614751 0.21516394,-0.0614751 0.0537908,0 0.10245903,0.0102451 0.14344264,0.0307369 0.0461069,0.0204916 0.0845286,0.0512293 0.1127049,0.0922135 h 0.020492 V -1.3217212 H 0.99385234 V 0 h -0.2356556 v -0.1229508 h -0.020492 c -0.0281762,0.04098359 -0.0665982,0.07684424 -0.11270491,0.10245899 -0.0409834,0.02561475 -0.092213,0.04098362 -0.15368836,0.04098362 z m 0.0717213,-0.20491802 c 0.0665986,0 0.11782757,-0.0230531 0.15368856,-0.0717213 0.0409836,-0.0461069 0.0614754,-0.11782751 0.0614754,-0.21516394 0,-0.0947744 -0.020492,-0.16649568 -0.0614754,-0.21516389 -0.035861,-0.0461069 -0.0870898,-0.0717215 -0.15368856,-0.0717215 -0.06916,0 -0.12295081,0.0256147 -0.1639344,0.0717215 -0.0358603,0.0409836 -0.0512295,0.11270494 -0.0512295,0.21516389 0,0.10245904 0.0153692,0.17930364 0.0512295,0.22540986 0.0409836,0.0409836 0.0947744,0.0614753 0.1639344,0.0614754 z m 0,0"
           id="path59"
           style="stroke-width:0.655738" />
      </g>
    </g>
    <g
       transform="translate(474.86428,265.80239)"
       id="g63">
      <g
         id="g62">
        <path
           d="m 0.1331967,0 v -0.94262289 h 0.22540985 v 0.12295084 l 0.0204919,0.0102457 c 0.0332989,-0.0537906 0.0717213,-0.0922131 0.1127049,-0.11270488 0.0409836,-0.0256137 0.0922132,-0.0409847 0.15368853,-0.0409847 0.0742827,0 0.13319668,0.0153692 0.1741803,0.0409847 0.0409841,0.0281755 0.0717216,0.06916 0.0922131,0.12295076 h 0.0204916 c 0.0256147,-0.0537906 0.064037,-0.0947745 0.11270482,-0.12295076 0.046106,-0.0256137 0.1050205,-0.0409847 0.1741804,-0.0409847 0.1895496,0 0.2868853,0.11014349 0.2868853,0.32786865 V 0 H 1.2704917 v -0.60450815 c 0,-0.0537908 -0.010245,-0.0922131 -0.030737,-0.11270489 -0.020491,-0.0256146 -0.056351,-0.0409839 -0.1024589,-0.0409839 -0.1306355,0 -0.19467217,0.0870899 -0.19467217,0.25614751 V 0 H 0.70696734 v -0.60450815 c 0,-0.0537908 -0.0153685,-0.0922131 -0.0409836,-0.11270489 -0.0204918,-0.0256146 -0.0563521,-0.0409839 -0.10245902,-0.0409839 -0.0614753,0 -0.11014362,0.0204919 -0.14344263,0.0614753 -0.0358603,0.0409836 -0.0512295,0.10758162 -0.0512295,0.19467208 V 0 Z m 0,0"
           id="path61"
           style="stroke-width:0.655738" />
      </g>
    </g>
    <g
       transform="translate(476.49901,265.80239)"
       id="g65">
      <g
         id="g64">
        <path
           d="m 0.25614753,-1.0553277 c -0.0409836,0 -0.076844,-0.012807 -0.10245903,-0.040985 -0.0281764,-0.025615 -0.0409836,-0.061475 -0.0409836,-0.102459 0,-0.040985 0.0128073,-0.071722 0.0409836,-0.092213 0.0256151,-0.025614 0.0614754,-0.040984 0.10245903,-0.040984 0.025615,0 0.0512294,0.00769 0.0717213,0.020491 0.0204918,0.00769 0.035861,0.020492 0.0512294,0.040984 0.0128072,0.020491 0.0204918,0.046107 0.0204918,0.071722 0,0.028176 -0.007684,0.051229 -0.0204918,0.071721 -0.0153686,0.020492 -0.0307377,0.038423 -0.0512294,0.051229 -0.0204918,0.015368 -0.0461062,0.020491 -0.0717213,0.020491 z M 0.1331967,0 V -0.94262288 H 0.36885245 V 0 Z m 0,0"
           id="path63"
           style="stroke-width:0.655738" />
      </g>
    </g>
    <g
       transform="translate(477.00795,265.80239)"
       id="g67">
      <g
         id="g66">
        <path
           d="m 0.1331967,0 v -0.94262289 h 0.22540985 v 0.13319674 l 0.0204919,0.0102459 c 0.0614753,-0.10758162 0.15624977,-0.16393439 0.28688521,-0.16393439 0.10758226,0 0.18698751,0.0307377 0.23565574,0.0922131 0.053791,0.0614756 0.0819673,0.1485659 0.0819673,0.25614754 V 0 H 0.74795077 v -0.58401633 c 0,-0.0614753 -0.0153685,-0.10502033 -0.040984,-0.13319671 -0.0204918,-0.0256146 -0.0614753,-0.0409839 -0.12295084,-0.0409839 -0.0614754,0 -0.11270493,0.0256145 -0.15368854,0.0717213 -0.0409836,0.0409836 -0.0614753,0.1075823 -0.0614753,0.19467208 V 0 Z m 0,0"
           id="path65"
           style="stroke-width:0.655738" />
      </g>
    </g>
    <g
       transform="translate(478.1149,265.80239)"
       id="g69">
      <g
         id="g68" />
    </g>
    <g
       transform="translate(478.52873,265.80239)"
       id="g71">
      <g
         id="g70">
        <path
           d="m 0.6454918,-1.2499998 c 0.0870904,0 0.16393438,0.01793 0.22540985,0.051229 0.0665983,0.03586 0.11526607,0.081967 0.14344245,0.1434426 0.0333,0.0563523 0.051229,0.1203895 0.051229,0.19467201 0,0.0819673 -0.01793,0.15368852 -0.051229,0.21516398 -0.0281756,0.056352 -0.076844,0.0998977 -0.14344245,0.13319666 -0.0614756,0.0281764 -0.13831939,0.0409836 -0.22540985,0.0409836 H 0.40983605 V 0 H 0.16393442 v -1.2499998 z m -0.0307377,0.58401626 c 0.13575799,0 0.20491791,-0.0640367 0.20491791,-0.19467209 0,-0.12807348 -0.0691601,-0.19467217 -0.20491791,-0.19467217 H 0.40983608 v 0.38934426 z m 0,0"
           id="path69"
           style="stroke-width:0.655738" />
      </g>
    </g>
    <g
       transform="translate(479.67338,265.80239)"
       id="g73">
      <g
         id="g72">
        <path
           d="m 0.55327868,0.02049181 c -0.0973364,0 -0.17930361,-0.01793033 -0.24590163,-0.05122953 -0.06916,-0.04098359 -0.12295084,-0.0973357 -0.16393444,-0.17418028 -0.0409836,-0.0742827 -0.0614754,-0.16393444 -0.0614754,-0.26639347 0,-0.10245896 0.0204918,-0.1895488 0.0614754,-0.26639341 0.0409836,-0.0742828 0.0947744,-0.12807343 0.16393444,-0.16393441 0.0665981,-0.0409845 0.14856523,-0.0614751 0.24590163,-0.0614751 0.0870898,0 0.16649572,0.0204916 0.23565571,0.0614751 0.0742825,0.0358612 0.12807412,0.0896518 0.16393448,0.16393441 0.0409841,0.0768446 0.0614751,0.16393445 0.0614751,0.26639341 0,0.10245903 -0.020491,0.19211086 -0.0614751,0.26639347 -0.0358601,0.0768446 -0.0896519,0.13319669 -0.16393448,0.17418028 -0.0691602,0.0332992 -0.14856587,0.05122953 -0.23565571,0.05122953 z m 0,-0.20491802 c 0.14344262,0 0.21516391,-0.0947744 0.21516391,-0.28688526 0,-0.10245896 -0.020492,-0.17418028 -0.0614752,-0.21516388 -0.0358603,-0.0461069 -0.0870905,-0.0717215 -0.15368855,-0.0717215 -0.15112721,0 -0.22540984,0.0973363 -0.22540984,0.28688514 0,0.19211085 0.0742826,0.28688525 0.22540968,0.2868855 z m 0,0"
           id="path71"
           style="stroke-width:0.655738" />
      </g>
    </g>
    <g
       transform="translate(480.77177,265.80239)"
       id="g75">
      <g
         id="g74">
        <path
           d="m 0.1331967,0 v -0.94262289 h 0.23565575 v 0.14344261 h 0.0102458 c 0.025615,-0.0537906 0.0563521,-0.0922131 0.0922131,-0.11270482 0.0409836,-0.0256147 0.0845286,-0.0409849 0.13319674,-0.0409849 0.0537908,0 0.0947744,0.0102462 0.12295077,0.0307369 l -0.0409836,0.204918 h -0.0102458 c -0.0204918,-0.005125 -0.0384222,-0.0102459 -0.0512294,-0.0102459 -0.0153685,-0.005125 -0.0307377,-0.0102459 -0.0512294,-0.0102459 -0.0614754,0 -0.11270492,0.0256146 -0.15368853,0.0717213 -0.0358603,0.0486682 -0.0512294,0.12295082 -0.0512294,0.22540978 V 0 Z m 0,0"
           id="path73"
           style="stroke-width:0.655738" />
      </g>
    </g>
    <g
       transform="translate(481.5129,265.80239)"
       id="g77">
      <g
         id="g76">
        <path
           d="m 0.65573771,-0.22540983 0.0614753,0.17418032 C 0.68903671,-0.03073772 0.65573771,-0.01280733 0.61475411,0 0.57377051,0.01280733 0.52766425,0.02049181 0.48155736,0.02049181 c -0.102459,0 -0.18186491,-0.02561475 -0.23565574,-0.08196721 -0.0486683,-0.0614754 -0.0717213,-0.1434426 -0.0717213,-0.24590162 V -0.75819671 H 0.03073772 V -0.94262289 H 0.17418031 V -1.127049 l 0.23565574,-0.040984 v 0.22540976 H 0.6762295 v 0.18442622 H 0.40983605 v 0.43032783 c 0,0.0486682 0.0102459,0.0819672 0.0307376,0.102459 0.0204918,0.0204918 0.0461069,0.0307377 0.0819672,0.0307377 0.0409836,0 0.076844,-0.0102458 0.11270493,-0.0307377 z m 0,0"
           id="path75"
           style="stroke-width:0.655738" />
      </g>
    </g>
    <g
       transform="translate(482.24716,265.80239)"
       id="g79">
      <g
         id="g78">
        <path
           d="m 0.36885245,0.02049181 c -0.0614753,0 -0.11782821,-0.0102459 -0.16393444,-0.03073772 -0.0409836,-0.02561474 -0.0768446,-0.0614754 -0.102459,-0.10245899 -0.0204918,-0.0409836 -0.03073774,-0.0922131 -0.03073774,-0.1536885 0,-0.0537908 0.01024592,-0.10245904 0.03073774,-0.14344267 0.0256143,-0.0409836 0.0640368,-0.0717213 0.11270491,-0.0922131 0.0537908,-0.0256151 0.12295083,-0.0461069 0.20491803,-0.0614754 0.0537908,-0.005123 0.0947745,-0.0128073 0.12295081,-0.0204918 0.0256151,-0.0128073 0.0435449,-0.0256151 0.0512294,-0.0409836 0.0128072,-0.0128073 0.0204918,-0.0307377 0.0204918,-0.0512294 0,-0.033299 -0.0102459,-0.0563528 -0.0307376,-0.0717213 -0.0204918,-0.0128069 -0.0563521,-0.020492 -0.10245902,-0.020492 -0.0563521,0 -0.10758228,0.0153686 -0.15368852,0.0409839 -0.0409836,0.0204919 -0.0819672,0.0486682 -0.12295083,0.0819672 H 0.1946722 l -0.10245911,-0.143443 c 0.04610686,-0.0537906 0.10502031,-0.0947744 0.17418031,-0.12295075 0.0665982,-0.0332975 0.14344263,-0.0512293 0.22540984,-0.0512293 0.12807346,0 0.22028724,0.0281753 0.27663933,0.0819673 0.0537906,0.0563523 0.0819672,0.13063543 0.0819672,0.22540988 v 0.40983604 c 0,0.0409836 0.0153683,0.0614754 0.0512291,0.0614754 0.0128064,0 0.0256137,-0.002561 0.0409845,-0.0102459 l 0.0204916,0.0102459 0.0102451,0.1639344 C 0.95799217,-0.01280733 0.94262291,-0.00512294 0.92213109,0 0.90163934,0.00512294 0.87346294,0.01024591 0.84016388,0.01024591 0.78381112,0.01024591 0.74026622,0 0.70696724,-0.02049181 0.67879079,-0.04610656 0.658299,-0.08196721 0.64549184,-0.1229508 L 0.62500004,-0.1331967 C 0.57633176,-0.03073772 0.49180326,0.02049181 0.36885245,0.02049181 Z m 0.0717213,-0.18442622 c 0.0537908,0 0.0973357,-0.0153692 0.13319674,-0.0512294 0.0332989,-0.0332989 0.0512295,-0.0845286 0.0512295,-0.15368853 v -0.0922131 l -0.0204919,-0.0102459 c -0.0153685,0.0153692 -0.0358603,0.0256143 -0.0614753,0.0307377 -0.0204918,0.007684 -0.0512295,0.0153685 -0.0922131,0.0204918 -0.0486682,0.0153685 -0.0870899,0.0307377 -0.11270492,0.0512294 -0.0204918,0.0204919 -0.0307377,0.0486682 -0.0307377,0.0819671 0,0.0409836 0.0102459,0.0717213 0.0307377,0.0922132 0.025615,0.0204918 0.0614753,0.0307376 0.10245898,0.0307377 z m 0,0"
           id="path77"
           style="stroke-width:0.655738" />
      </g>
    </g>
    <g
       transform="translate(483.24359,265.80239)"
       id="g81">
      <g
         id="g80">
        <path
           d="m 0.38934426,0.02049181 c -0.0819671,0 -0.14856526,-0.02305329 -0.19467216,-0.07172132 C 0.1536885,-0.09733639 0.1331967,-0.16649573 0.1331967,-0.25614753 V -1.3217212 h 0.23565578 v 1.05532777 c 0,0.0563528 0.023053,0.0819671 0.0717213,0.0819671 0.0128073,0 0.0256152,-0.002561 0.0409836,-0.0102458 l 0.0102459,0.0102458 L 0.51229507,0 c -0.0153692,0.00512294 -0.0307376,0.01024591 -0.0512294,0.01024591 -0.0204919,0.005123 -0.0461069,0.0102459 -0.0717214,0.0102459 z m 0,0"
           id="path79"
           style="stroke-width:0.655738" />
      </g>
    </g>
  </g>
  <metadata
     id="metadata83">
    <rdf:RDF>
      <cc:Work
         rdf:about="">
        <dc:title>Test</dc:title>
      </cc:Work>
    </rdf:RDF>
  </metadata>
</svg>
