<?xml version="1.0" encoding="UTF-8" standalone="no"?>
<svg
   width="389.79996"
   zoomAndPan="magnify"
   viewBox="0 0 292.34997 96.477275"
   height="128.63637"
   preserveAspectRatio="xMidYMid"
   version="1.0"
   id="svg79"
   sodipodi:docname="irex-logo-tp.svg"
   inkscape:export-filename="irex-logo-tp.png"
   inkscape:export-xdpi="96"
   inkscape:export-ydpi="96"
   xmlns:inkscape="http://www.inkscape.org/namespaces/inkscape"
   xmlns:sodipodi="http://sodipodi.sourceforge.net/DTD/sodipodi-0.dtd"
   xmlns="http://www.w3.org/2000/svg"
   xmlns:svg="http://www.w3.org/2000/svg">
  <sodipodi:namedview
     id="namedview79"
     pagecolor="#ffffff"
     bordercolor="#000000"
     borderopacity="0.25"
     inkscape:showpageshadow="2"
     inkscape:pageopacity="0.0"
     inkscape:pagecheckerboard="0"
     inkscape:deskcolor="#d1d1d1">
    <inkscape:page
       x="0"
       y="0"
       width="292.34998"
       height="96.477272"
       id="page2"
       margin="0"
       bleed="0" />
  </sodipodi:namedview>
  <defs
     id="defs10">
    <clipPath
       id="8f66123534">
      <path
         d="m 632,374.12109 h 14 V 424 h -14 z m 0,0"
         clip-rule="nonzero"
         id="path1" />
    </clipPath>
    <clipPath
       id="66e1c4602f">
      <path
         d="M 623.52734,406 H 654.5 v 29.61719 h -30.97266 z m 0,0"
         clip-rule="nonzero"
         id="path2" />
    </clipPath>
    <clipPath
       id="6cdcec3949">
      <path
         d="m 624.625,421.39062 h 28.77734 v 14.22657 H 624.625 Z m 0,0"
         clip-rule="nonzero"
         id="path3" />
    </clipPath>
    <clipPath
       id="6a99ddcb52">
      <path
         d="m 655.30078,410.59766 h 15.05078 v 17.58984 h -15.05078 z m 0,0"
         clip-rule="nonzero"
         id="path4" />
    </clipPath>
    <clipPath
       id="30d8389e7d">
      <path
         d="m 655.30078,411 h 15.05078 v 17.1875 h -15.05078 z m 0,0"
         clip-rule="nonzero"
         id="path5" />
    </clipPath>
    <clipPath
       id="65a668d4bc">
      <path
         d="m 618,374.12109 h 4 V 389 h -4 z m 0,0"
         clip-rule="nonzero"
         id="path6" />
    </clipPath>
    <clipPath
       id="8c1b853c38">
      <path
         d="m 617,374.12109 h 3 V 376 h -3 z m 0,0"
         clip-rule="nonzero"
         id="path7" />
    </clipPath>
    <clipPath
       id="61bebe0eb1">
      <path
         d="m 656,374.12109 h 4 V 389 h -4 z m 0,0"
         clip-rule="nonzero"
         id="path8" />
    </clipPath>
    <clipPath
       id="e6ba8a1472">
      <path
         d="m 658,374.12109 h 3 V 376 h -3 z m 0,0"
         clip-rule="nonzero"
         id="path9" />
    </clipPath>
    <clipPath
       id="9d86536183">
      <path
         d="M 601.37109,391 H 617 v 21 h -15.62891 z m 0,0"
         clip-rule="nonzero"
         id="path10" />
    </clipPath>
  </defs>
  <g
     clip-path="url(#8f66123534)"
     id="g11"
     transform="translate(-572.51593,-353.07956)">
    <path
       fill="#094f94"
       d="m 645.53906,418.49609 v -39.54687 c 0,-2.59766 -2.10547,-4.70703 -4.70312,-4.70703 h -3.4336 c -2.59765,0 -4.70703,2.10937 -4.70703,4.70703 v 39.54687 c 0,2.60157 2.10938,4.70703 4.70703,4.70703 h 3.4336 c 2.59765,0 4.70312,-2.10546 4.70312,-4.70703"
       fill-opacity="1"
       fill-rule="nonzero"
       id="path11" />
  </g>
  <path
     fill="#094f94"
     d="M 85.02313,65.385281 H 47.39032 v -5.8789 h 37.63281 v 5.8789"
     fill-opacity="1"
     fill-rule="nonzero"
     id="path12" />
  <g
     clip-path="url(#66e1c4602f)"
     id="g13"
     transform="translate(-572.51593,-353.07956)">
    <path
       fill="#e0ecf8"
       d="m 654.33203,406.02734 h -30.60156 c 0,0 -1.21094,16.72266 4.48437,23.50782 5.26953,6.28515 10.125,6.1289 10.81641,6.07031 0.69141,0.0586 5.54687,0.21484 10.81641,-6.07031 5.69531,-6.78516 4.48437,-23.50782 4.48437,-23.50782"
       fill-opacity="1"
       fill-rule="nonzero"
       id="path13" />
  </g>
  <g
     clip-path="url(#6cdcec3949)"
     id="g14"
     transform="translate(-572.51593,-353.07956)">
    <path
       fill="#c7dae9"
       d="m 650.17578,427.83984 c -5.43359,6.28125 -10.42969,6.125 -11.14453,6.06641 -0.71484,0.0586 -5.71094,0.21484 -11.14453,-6.06641 -1.44531,-1.67578 -2.46094,-3.95312 -3.16797,-6.4375 0.68359,3.12891 1.77344,6.08594 3.49609,8.13282 5.26953,6.28515 10.125,6.1289 10.81641,6.07031 0.69141,0.0586 5.54687,0.21484 10.81641,-6.07031 1.72265,-2.04688 2.8125,-5.00391 3.49609,-8.13282 -0.70703,2.48438 -1.72266,4.76172 -3.16797,6.4375"
       fill-opacity="1"
       fill-rule="nonzero"
       id="path14" />
  </g>
  <path
     fill="#c7dae9"
     d="m 51.15204,54.189971 c 2.20703,2.75781 5.45703,4.5 9.08203,4.5 h 12.73828 c 3.53125,0 6.71094,-1.65234 8.91406,-4.29297 -0.0312,-0.91406 -0.0703,-1.44922 -0.0703,-1.44922 H 51.21455 c 0,0 -0.0352,0.45313 -0.0625,1.24219"
     fill-opacity="1"
     fill-rule="nonzero"
     id="path15" />
  <path
     fill="#c7dae9"
     d="m 54.98016,75.498561 c 1.24219,-1.79687 2.04688,-4.43359 2.10938,-7.39062 h 18.89844 c 0.0586,2.9375 0.85546,5.5625 2.08203,7.35937 0.14062,-0.21093 0.27734,-0.42968 0.40625,-0.65625 -1.08203,-1.73437 -1.76953,-4.26171 -1.76953,-7.07031 0,-5.17969 2.32812,-9.39844 5.19921,-9.45703 0.008,-0.25 0.0117,-0.49219 0.0117,-0.73047 -3.20703,0.0469 -5.82031,4.40235 -5.92968,9.82813 H 57.08952 c -0.11328,-5.44922 -2.75,-9.82422 -5.98047,-9.82813 0.004,0.23438 0.008,0.47656 0.0156,0.72656 2.89063,0.0156 5.24219,4.25391 5.24219,9.46094 0,2.83203 -0.69531,5.3711 -1.79297,7.10938 0.13282,0.22265 0.26563,0.4375 0.40625,0.64843"
     fill-opacity="1"
     fill-rule="nonzero"
     id="path16" />
  <path
     fill="#c7dae9"
     d="m 63.65985,67.744661 c 0,-1.62891 1.31641,-2.94531 2.94141,-2.94531 1.6289,0 2.94531,1.3164 2.94531,2.94531 0,1.625 -1.31641,2.94531 -2.94531,2.94531 -1.625,0 -2.94141,-1.32031 -2.94141,-2.94531"
     fill-opacity="1"
     fill-rule="nonzero"
     id="path17" />
  <path
     fill="#094f94"
     d="m 64.5661,67.744661 c 0,-1.125 0.91016,-2.03906 2.03516,-2.03906 1.125,0 2.03906,0.91406 2.03906,2.03906 0,1.125 -0.91406,2.03515 -2.03906,2.03515 -1.125,0 -2.03516,-0.91015 -2.03516,-2.03515"
     fill-opacity="1"
     fill-rule="nonzero"
     id="path18" />
  <g
     clip-path="url(#6a99ddcb52)"
     id="g19"
     transform="translate(-572.51593,-353.07956)">
    <path
       fill="#e0ecf8"
       d="m 655.37109,412.73047 0.0937,5.14062 c 0.0274,1.42578 0.76563,2.74219 1.96485,3.51172 l 10.21484,6.51563 c 1.26953,0.8125 2.91406,-0.25 2.68359,-1.74219 -0.61718,-3.98047 -3.0625,-10.5 -11.98046,-15.23438 -1.36329,-0.72265 -3.00391,0.26563 -2.97657,1.8086"
       fill-opacity="1"
       fill-rule="nonzero"
       id="path19" />
  </g>
  <g
     clip-path="url(#30d8389e7d)"
     id="g20"
     transform="translate(-572.51593,-353.07956)">
    <path
       fill="#c7dae9"
       d="m 668.51172,426.15625 -10.21094,-6.51563 c -1.20312,-0.76562 -1.9375,-2.08593 -1.96484,-3.51171 l -0.0937,-5.08985 c -0.52344,0.35938 -0.88282,0.96094 -0.8711,1.69141 l 0.0937,5.14062 c 0.0274,1.42578 0.76563,2.74219 1.96485,3.51172 l 10.21484,6.51563 c 1.25781,0.80468 2.87891,-0.23047 2.6875,-1.69922 -0.53125,0.30469 -1.21484,0.34375 -1.82031,-0.043"
       fill-opacity="1"
       fill-rule="nonzero"
       id="path20" />
  </g>
  <g
     clip-path="url(#65a668d4bc)"
     id="g21"
     transform="translate(-572.51593,-353.07956)">
    <path
       fill="#c7dae9"
       d="M 619.6875,388.82031 618.55859,375 l 0.37891,-0.0625 3.01172,13.88281 h -2.26172"
       fill-opacity="1"
       fill-rule="nonzero"
       id="path21" />
  </g>
  <g
     clip-path="url(#8c1b853c38)"
     id="g22"
     transform="translate(-572.51593,-353.07956)">
    <path
       fill="#c7dae9"
       d="m 617.87109,375.03125 c 0,-0.50391 0.40625,-0.91016 0.91016,-0.91016 0.5,0 0.90625,0.40625 0.90625,0.91016 0,0.5 -0.40625,0.91016 -0.90625,0.91016 -0.50391,0 -0.91016,-0.41016 -0.91016,-0.91016"
       fill-opacity="1"
       fill-rule="nonzero"
       id="path22" />
  </g>
  <g
     clip-path="url(#61bebe0eb1)"
     id="g23"
     transform="translate(-572.51593,-353.07956)">
    <path
       fill="#c7dae9"
       d="M 658.54687,388.82031 659.67578,375 l -0.375,-0.0625 -3.01172,13.88281 h 2.25781"
       fill-opacity="1"
       fill-rule="nonzero"
       id="path23" />
  </g>
  <g
     clip-path="url(#e6ba8a1472)"
     id="g24"
     transform="translate(-572.51593,-353.07956)">
    <path
       fill="#c7dae9"
       d="m 660.36719,375.03125 c 0,-0.50391 -0.40625,-0.91016 -0.91016,-0.91016 -0.5,0 -0.91016,0.40625 -0.91016,0.91016 0,0.5 0.41016,0.91016 0.91016,0.91016 0.50391,0 0.91016,-0.41016 0.91016,-0.91016"
       fill-opacity="1"
       fill-rule="nonzero"
       id="path24" />
  </g>
  <path
     fill="#094f94"
     d="M 86.37469,34.951691 H 46.83173 c -2.59766,0 -4.70704,2.10547 -4.70704,4.70703 v 3.42969 c 0,2.60156 2.10938,4.70703 4.70704,4.70703 h 39.54296 c 2.59766,0 4.70704,-2.10547 4.70704,-4.70703 v -3.42969 c 0,-2.60156 -2.10938,-4.70703 -4.70704,-4.70703"
     fill-opacity="1"
     fill-rule="nonzero"
     id="path25" />
  <path
     fill="#e0ecf8"
     d="m 73.53876,25.682161 h -13.8711 c -7.24609,0 -13.12109,5.87109 -13.12109,13.11719 v 5.14843 c 0,7.2461 5.875,13.1211 13.12109,13.1211 h 13.8711 c 7.24609,0 13.11718,-5.875 13.11718,-13.1211 v -5.14843 c 0,-7.2461 -5.87109,-13.11719 -13.11718,-13.11719"
     fill-opacity="1"
     fill-rule="nonzero"
     id="path26" />
  <path
     fill="#c7dae9"
     d="m 81.74969,37.436061 -0.11718,-0.55859 c -0.36719,-1.80859 -1.49219,-3.38672 -3.08203,-4.32422 -1.58985,-0.9375 -3.51172,-1.16015 -5.27344,-0.60937 l -0.19922,0.0625 c -4.29688,1.34375 -8.83594,1.33203 -13.12891,-0.0274 -1.76562,-0.5625 -3.6914,-0.34375 -5.28906,0.59375 -1.59375,0.9375 -2.72266,2.51563 -3.09375,4.32813 l -0.10937,0.53515 c -0.73438,3.61329 0.17968,7.32032 2.50781,10.17579 2.33203,2.85546 5.78125,4.49218 9.46875,4.49218 h 6.33984 c 3.6875,0 7.13672,-1.63672 9.46875,-4.49218 2.32813,-2.85547 3.24219,-6.5625 2.50781,-10.17579"
     fill-opacity="1"
     fill-rule="nonzero"
     id="path27" />
  <path
     fill="#2e3033"
     d="m 80.55438,37.682161 -0.11328,-0.5625 c -0.63281,-3.08594 -3.79297,-4.95313 -6.80078,-4.01172 l -0.19922,0.0625 c -4.51172,1.41016 -9.35156,1.39844 -13.85937,-0.0312 -3.01172,-0.95703 -6.1875,0.91016 -6.82032,4.00781 l -0.10937,0.53516 c -1.39063,6.82031 3.82031,13.20312 10.78125,13.20312 h 6.33984 c 6.96094,0 12.17188,-6.38281 10.78125,-13.20312"
     fill-opacity="1"
     fill-rule="nonzero"
     id="path28" />
  <path
     fill="#ffffff"
     d="m 50.03485,32.861851 c 0,0 3.94531,-6.1836 6.73047,-5.25391 2.78516,0.92969 -3.53125,3.16797 -6.73047,5.25391"
     fill-opacity="1"
     fill-rule="nonzero"
     id="path29" />
  <path
     fill="#ffffff"
     d="m 60.40985,27.514191 c 0,0.44141 -0.35937,0.80078 -0.80078,0.80078 -0.44141,0 -0.80078,-0.35937 -0.80078,-0.80078 0,-0.44531 0.35937,-0.80078 0.80078,-0.80078 0.44141,0 0.80078,0.35547 0.80078,0.80078"
     fill-opacity="1"
     fill-rule="nonzero"
     id="path30" />
  <path
     fill="#ffffff"
     d="m 95.85126,69.857941 c 0,0 -3.39453,-7.70703 -4.56641,-6.54297 -1.17187,1.16406 4.56641,6.54297 4.56641,6.54297"
     fill-opacity="1"
     fill-rule="nonzero"
     id="path31" />
  <path
     fill="#ffde1a"
     d="m 66.60126,46.955601 c -1.35157,0 -2.70313,-0.36719 -4.04688,-1.10157 -0.4414,-0.24218 -0.60547,-0.79687 -0.36328,-1.24218 0.24219,-0.44141 0.79688,-0.60157 1.23828,-0.35938 2.13672,1.16797 4.21094,1.16797 6.34375,0 0.44141,-0.24219 1,-0.082 1.24219,0.35938 0.24219,0.44531 0.0781,1 -0.36328,1.24218 -1.34375,0.73438 -2.69531,1.10157 -4.05078,1.10157"
     fill-opacity="1"
     fill-rule="nonzero"
     id="path32" />
  <path
     fill="#e0ecf8"
     d="m 49.65204,64.959501 0.37109,-5.13281 c 0.10156,-1.42188 -0.51562,-2.80078 -1.64453,-3.67188 l -9.58203,-7.41015 c -1.19531,-0.92188 -2.92969,-0.0117 -2.83203,1.49609 0.25781,4.01953 2.10547,10.73047 10.5625,16.25 1.29297,0.84375 3.01562,0.008 3.125,-1.53125"
     fill-opacity="1"
     fill-rule="nonzero"
     id="path33" />
  <path
     fill="#c7dae9"
     d="m 50.02313,59.826691 c 0.0625,-0.89844 -0.16015,-1.78125 -0.62109,-2.53125 l -0.26563,3.71094 c -0.11328,1.53906 -1.83593,2.375 -3.1289,1.53125 -6.35938,-4.15235 -8.98047,-8.97657 -10,-12.82422 -0.0391,0.16406 -0.0547,0.33984 -0.043,0.52734 0.25781,4.01953 2.10547,10.73047 10.5625,16.25 1.29297,0.84375 3.01562,0.008 3.125,-1.53125 l 0.37109,-5.13281"
     fill-opacity="1"
     fill-rule="nonzero"
     id="path34" />
  <path
     fill="#ffde1a"
     d="m 59.52313,39.904811 c 0,-0.88671 0.71485,-1.60156 1.60156,-1.60156 0.88672,0 1.60157,0.71485 1.60157,1.60156 0,0.88672 -0.71485,1.60157 -1.60157,1.60157 -0.88671,0 -1.60156,-0.71485 -1.60156,-1.60157"
     fill-opacity="1"
     fill-rule="nonzero"
     id="path35" />
  <path
     fill="#ffde1a"
     d="m 70.30438,39.904811 c 0,-0.88671 0.71485,-1.60156 1.60156,-1.60156 0.88282,0 1.60157,0.71485 1.60157,1.60156 0,0.88672 -0.71875,1.60157 -1.60157,1.60157 -0.88671,0 -1.60156,-0.71485 -1.60156,-1.60157"
     fill-opacity="1"
     fill-rule="nonzero"
     id="path36" />
  <g
     clip-path="url(#9d86536183)"
     id="g37"
     transform="translate(-572.51593,-353.07956)">
    <path
       fill="#0083db"
       d="m 616.47656,407.15234 -3.76562,-14.32031 c -0.19532,-0.73828 -0.94922,-1.17969 -1.69141,-0.98437 l -8.44531,2.21875 c -0.73828,0.19531 -1.17969,0.95312 -0.98828,1.6914 l 3.76562,14.32031 c 0.19531,0.73829 0.95313,1.17969 1.69141,0.98438 l 8.44531,-2.21875 c 0.73828,-0.19531 1.17969,-0.95313 0.98828,-1.69141"
       fill-opacity="1"
       fill-rule="nonzero"
       id="path37" />
  </g>
  <path
     fill="#094f94"
     d="m 42.3786,53.350131 -3.20312,-12.1875 c -0.14063,-0.53125 -0.67969,-0.84766 -1.20704,-0.70703 l -6.60937,1.73828 c -0.53125,0.14062 -0.84766,0.67968 -0.70703,1.20703 l 3.20312,12.1875 c 0.14063,0.53125 0.67969,0.84375 1.21094,0.70703 l 6.60938,-1.73828 c 0.52734,-0.14063 0.84375,-0.67969 0.70312,-1.20703"
     fill-opacity="1"
     fill-rule="nonzero"
     id="path38" />
  <path
     fill="#e0ecf8"
     d="m 38.13251,49.193881 -4.89453,1.28906 -0.23047,-0.88281 4.89062,-1.28516 0.23438,0.87891"
     fill-opacity="1"
     fill-rule="nonzero"
     id="path39" />
  <path
     fill="#e0ecf8"
     d="m 36.44501,47.971221 -3.61719,0.95313 -0.23047,-0.88282 3.61719,-0.94922 0.23047,0.87891"
     fill-opacity="1"
     fill-rule="nonzero"
     id="path40" />
  <path
     fill="#e0ecf8"
     d="m 35.31219,46.604031 -2.89453,0.76172 -0.23047,-0.88281 2.89454,-0.75781 0.23046,0.8789"
     fill-opacity="1"
     fill-rule="nonzero"
     id="path41" />
  <path
     fill="#e0ecf8"
     d="m 38.89032,42.834501 -3.35547,0.88281 -0.23047,-0.88281 3.35547,-0.88281 0.23047,0.88281"
     fill-opacity="1"
     fill-rule="nonzero"
     id="path42" />
  <path
     fill="#e0ecf8"
     d="m 41.10126,51.244661 -3.35547,0.88281 -0.23047,-0.88281 3.35547,-0.88281 0.23047,0.88281"
     fill-opacity="1"
     fill-rule="nonzero"
     id="path43" />
  <path
     fill="#e0ecf8"
     d="m 41.53876,52.912631 -4.71875,1.24218 -0.23438,-0.88281 4.72266,-1.23828 0.23047,0.87891"
     fill-opacity="1"
     fill-rule="nonzero"
     id="path44" />
  <g
     fill="#000000"
     fill-opacity="1"
     id="g79"
     transform="translate(-572.51593,-353.07956)">
    <g
       transform="translate(684.34627,410.99574)"
       id="g46">
      <g
         id="g45">
        <path
           d="m 2.5,-10.390625 c -0.417969,0 -0.761719,-0.125 -1.03125,-0.375 -0.261719,-0.257813 -0.390625,-0.59375 -0.390625,-1 0,-0.394531 0.128906,-0.71875 0.390625,-0.96875 C 1.738281,-12.992188 2.082031,-13.125 2.5,-13.125 c 0.28125,0 0.53125,0.05859 0.75,0.171875 0.21875,0.117187 0.382812,0.277344 0.5,0.484375 0.125,0.210938 0.1875,0.445312 0.1875,0.703125 0,0.261719 -0.0625,0.496094 -0.1875,0.703125 -0.117188,0.210938 -0.28125,0.375 -0.5,0.5 -0.21875,0.117188 -0.46875,0.171875 -0.75,0.171875 z M 1.34375,0 V -9.28125 H 3.671875 V 0 Z m 0,0"
           id="path45" />
      </g>
    </g>
    <g
       transform="translate(689.34295,410.99574)"
       id="g48">
      <g
         id="g47">
        <path
           d="m 1.59375,0 v -12.296875 h 4.9375 c 1.28125,0 2.242188,0.292969 2.890625,0.875 0.644531,0.585937 0.96875,1.390625 0.96875,2.421875 0,0.75 -0.195313,1.367188 -0.578125,1.84375 C 9.4375,-6.6875 8.875,-6.320312 8.125,-6.0625 v 0.171875 c 0.382812,0.167969 0.695312,0.417969 0.9375,0.75 0.238281,0.335937 0.46875,0.824219 0.6875,1.46875 L 10.96875,0 h -2.5 L 7.265625,-3.671875 C 7.140625,-4.046875 7,-4.332031 6.84375,-4.53125 6.695312,-4.738281 6.503906,-4.890625 6.265625,-4.984375 6.023438,-5.078125 5.710938,-5.125 5.328125,-5.125 H 4.03125 V 0 Z M 6.25,-7.046875 c 1.175781,0 1.765625,-0.550781 1.765625,-1.65625 C 8.015625,-9.816406 7.425781,-10.375 6.25,-10.375 H 4.03125 v 3.328125 z m 0,0"
           id="path46" />
      </g>
    </g>
    <g
       transform="translate(700.84205,410.99574)"
       id="g50">
      <g
         id="g49">
        <path
           d="m 4.03125,-5.40625 v 3.375 h 5.875 V 0 h -8.3125 v -12.296875 h 8.171875 v 2.03125 H 4.03125 v 2.875 h 5.015625 v 1.984375 z m 0,0"
           id="path48" />
      </g>
    </g>
    <g
       transform="translate(711.41584,410.99574)"
       id="g52">
      <g
         id="g51">
        <path
           d="m 2.703125,0 h -2.5 l 3.65625,-6.328125 -3.46875,-5.96875 H 2.96875 l 2.546875,4.40625 h 0.21875 l 2.59375,-4.40625 H 10.78125 L 7.3125,-6.328125 10.953125,0 H 8.375 L 5.640625,-4.75 H 5.4375 Z m 0,0"
           id="path50" />
      </g>
    </g>
    <g
       transform="translate(722.57846,410.99574)"
       id="g54">
      <g
         id="g53" />
    </g>
    <g
       transform="translate(726.64142,410.99574)"
       id="g56">
      <g
         id="g55">
        <path
           d="M 11.8125,0 H 9.25 L 8.328125,-2.828125 H 3.609375 L 2.6875,0 h -2.5 l 4.25,-12.296875 h 3.125 z M 5.84375,-9.734375 4.265625,-4.875 H 7.65625 L 6.0625,-9.734375 Z m 0,0"
           id="path54" />
      </g>
    </g>
    <g
       transform="translate(738.62841,410.99574)"
       id="g58">
      <g
         id="g57">
        <path
           d="m 4.59375,0.171875 c -0.742188,0 -1.390625,-0.17578125 -1.953125,-0.53125 C 2.078125,-0.710938 1.632812,-1.25 1.3125,-1.96875 0.988281,-2.695312 0.828125,-3.585938 0.828125,-4.640625 c 0,-1.0625 0.160156,-1.953125 0.484375,-2.671875 0.332031,-0.71875 0.789062,-1.253906 1.375,-1.609375 0.582031,-0.351563 1.253906,-0.53125 2.015625,-0.53125 0.582031,0 1.082031,0.101563 1.5,0.296875 0.425781,0.199219 0.785156,0.507812 1.078125,0.921875 l 0.171875,-0.03125 v -4.75 H 9.78125 V 0 H 7.453125 V -1.203125 L 7.28125,-1.234375 c -0.261719,0.4375 -0.617188,0.78125 -1.0625,1.03125 -0.449219,0.25 -0.992188,0.375 -1.625,0.375 z m 0.75,-1.96875 C 6,-1.796875 6.515625,-2.03125 6.890625,-2.5 7.273438,-2.96875 7.46875,-3.679688 7.46875,-4.640625 c 0,-0.945313 -0.195312,-1.65625 -0.578125,-2.125 C 6.515625,-7.242188 6,-7.484375 5.34375,-7.484375 c -0.6875,0 -1.214844,0.230469 -1.578125,0.6875 -0.355469,0.460937 -0.53125,1.179687 -0.53125,2.15625 0,0.980469 0.175781,1.699219 0.53125,2.15625 0.363281,0.460937 0.890625,0.6875 1.578125,0.6875 z m 0,0"
           id="path56" />
      </g>
    </g>
    <g
       transform="translate(749.74897,410.99574)"
       id="g60">
      <g
         id="g59">
        <path
           d="m 1.34375,0 v -9.28125 h 2.234375 v 1.25 L 3.75,-8 c 0.300781,-0.5 0.65625,-0.863281 1.0625,-1.09375 0.40625,-0.238281 0.925781,-0.359375 1.5625,-0.359375 0.707031,0 1.269531,0.140625 1.6875,0.421875 0.425781,0.273438 0.738281,0.671875 0.9375,1.203125 h 0.1875 c 0.28125,-0.550781 0.644531,-0.957031 1.09375,-1.21875 0.457031,-0.269531 1.019531,-0.40625 1.6875,-0.40625 1.925781,0 2.890625,1.070313 2.890625,3.203125 V 0 H 12.53125 v -5.953125 c 0,-0.539063 -0.109375,-0.929687 -0.328125,-1.171875 -0.210937,-0.238281 -0.546875,-0.359375 -1.015625,-0.359375 -1.28125,0 -1.921875,0.855469 -1.921875,2.5625 V 0 H 6.9375 v -5.953125 c 0,-0.539063 -0.109375,-0.929687 -0.328125,-1.171875 -0.21875,-0.238281 -0.5625,-0.359375 -1.03125,-0.359375 -0.605469,0 -1.074219,0.203125 -1.40625,0.609375 -0.335937,0.398438 -0.5,1.03125 -0.5,1.90625 V 0 Z m 0,0"
           id="path58" />
      </g>
    </g>
    <g
       transform="translate(765.79892,410.99574)"
       id="g62">
      <g
         id="g61">
        <path
           d="m 2.5,-10.390625 c -0.417969,0 -0.761719,-0.125 -1.03125,-0.375 -0.261719,-0.257813 -0.390625,-0.59375 -0.390625,-1 0,-0.394531 0.128906,-0.71875 0.390625,-0.96875 C 1.738281,-12.992188 2.082031,-13.125 2.5,-13.125 c 0.28125,0 0.53125,0.05859 0.75,0.171875 0.21875,0.117187 0.382812,0.277344 0.5,0.484375 0.125,0.210938 0.1875,0.445312 0.1875,0.703125 0,0.261719 -0.0625,0.496094 -0.1875,0.703125 -0.117188,0.210938 -0.28125,0.375 -0.5,0.5 -0.21875,0.117188 -0.46875,0.171875 -0.75,0.171875 z M 1.34375,0 V -9.28125 H 3.671875 V 0 Z m 0,0"
           id="path60" />
      </g>
    </g>
    <g
       transform="translate(770.7956,410.99574)"
       id="g64">
      <g
         id="g63">
        <path
           d="m 1.34375,0 v -9.28125 h 2.234375 v 1.359375 L 3.75,-7.875 c 0.582031,-1.050781 1.519531,-1.578125 2.8125,-1.578125 1.070312,0 1.859375,0.292969 2.359375,0.875 0.5,0.585937 0.75,1.433594 0.75,2.546875 V 0 H 7.34375 v -5.75 c 0,-0.613281 -0.125,-1.054688 -0.375,-1.328125 -0.242188,-0.269531 -0.632812,-0.40625 -1.171875,-0.40625 -0.679687,0 -1.203125,0.21875 -1.578125,0.65625 C 3.851562,-6.398438 3.671875,-5.726562 3.671875,-4.8125 V 0 Z m 0,0"
           id="path62" />
      </g>
    </g>
    <g
       transform="translate(781.66381,410.99574)"
       id="g66">
      <g
         id="g65" />
    </g>
    <g
       transform="translate(785.72677,410.99574)"
       id="g68">
      <g
         id="g67">
        <path
           d="m 6.359375,-12.296875 c 0.875,0 1.625,0.164063 2.25,0.484375 0.625,0.324219 1.097656,0.777344 1.421875,1.359375 0.320312,0.574219 0.484375,1.246094 0.484375,2.015625 0,0.773438 -0.164063,1.449219 -0.484375,2.03125 -0.324219,0.574219 -0.796875,1.023438 -1.421875,1.34375 -0.625,0.3125 -1.375,0.46875 -2.25,0.46875 H 4.03125 V 0 h -2.4375 v -12.296875 z m -0.328125,5.78125 c 1.351562,0 2.03125,-0.640625 2.03125,-1.921875 0,-1.289062 -0.679688,-1.9375 -2.03125,-1.9375 h -2 v 3.859375 z m 0,0"
           id="path66" />
      </g>
    </g>
    <g
       transform="translate(796.9651,410.99574)"
       id="g70">
      <g
         id="g69">
        <path
           d="M 5.390625,0.171875 C 4.484375,0.171875 3.6875,-0.0078125 3,-0.375 2.3125,-0.75 1.773438,-1.296875 1.390625,-2.015625 c -0.375,-0.726563 -0.5625,-1.601563 -0.5625,-2.625 0,-1.019531 0.1875,-1.890625 0.5625,-2.609375 C 1.773438,-7.976562 2.3125,-8.523438 3,-8.890625 c 0.6875,-0.375 1.484375,-0.5625 2.390625,-0.5625 0.90625,0 1.703125,0.1875 2.390625,0.5625 0.6875,0.367187 1.222656,0.914063 1.609375,1.640625 0.382813,0.71875 0.578125,1.589844 0.578125,2.609375 0,1.023437 -0.195312,1.898437 -0.578125,2.625 C 9.003906,-1.296875 8.46875,-0.75 7.78125,-0.375 7.09375,-0.0078125 6.296875,0.171875 5.390625,0.171875 Z m 0,-1.96875 c 1.445313,0 2.171875,-0.945313 2.171875,-2.84375 0,-0.976563 -0.1875,-1.695313 -0.5625,-2.15625 -0.367188,-0.457031 -0.902344,-0.6875 -1.609375,-0.6875 -1.4375,0 -2.15625,0.949219 -2.15625,2.84375 0,1.898437 0.71875,2.84375 2.15625,2.84375 z m 0,0"
           id="path68" />
      </g>
    </g>
    <g
       transform="translate(807.74918,410.99574)"
       id="g72">
      <g
         id="g71">
        <path
           d="m 1.34375,0 v -9.28125 h 2.265625 v 1.375 L 3.78125,-7.875 C 4,-8.382812 4.289062,-8.757812 4.65625,-9 c 0.363281,-0.238281 0.804688,-0.359375 1.328125,-0.359375 0.53125,0 0.929687,0.089844 1.203125,0.265625 L 6.796875,-7.078125 6.625,-7.046875 C 6.46875,-7.109375 6.316406,-7.15625 6.171875,-7.1875 c -0.136719,-0.03125 -0.304687,-0.046875 -0.5,-0.046875 -0.648437,0 -1.140625,0.230469 -1.484375,0.6875 -0.34375,0.460937 -0.515625,1.195313 -0.515625,2.203125 V 0 Z m 0,0"
           id="path70" />
      </g>
    </g>
    <g
       transform="translate(815.0255,410.99574)"
       id="g74">
      <g
         id="g73">
        <path
           d="m 6.40625,-2.21875 0.609375,1.734375 C 6.753906,-0.273438 6.429688,-0.113281 6.046875,0 c -0.375,0.113281 -0.804687,0.171875 -1.28125,0.171875 -1.011719,0 -1.777344,-0.2695312 -2.296875,-0.8125 C 1.945312,-1.191406 1.6875,-1.988281 1.6875,-3.03125 V -7.4375 H 0.28125 V -9.296875 H 1.6875 v -1.796875 l 2.328125,-0.390625 v 2.1875 H 6.65625 V -7.4375 H 4.015625 v 4.234375 c 0,0.46875 0.09375,0.808594 0.28125,1.015625 0.195313,0.210938 0.476563,0.3125 0.84375,0.3125 0.414063,0 0.78125,-0.113281 1.09375,-0.34375 z m 0,0"
           id="path72" />
      </g>
    </g>
    <g
       transform="translate(822.23451,410.99574)"
       id="g76">
      <g
         id="g75">
        <path
           d="M 3.625,0.171875 C 3.019531,0.171875 2.5,0.0625 2.0625,-0.15625 1.625,-0.375 1.285156,-0.691406 1.046875,-1.109375 c -0.230469,-0.425781 -0.34375,-0.9375 -0.34375,-1.53125 0,-0.550781 0.113281,-1.015625 0.34375,-1.390625 0.238281,-0.375 0.601563,-0.675781 1.09375,-0.90625 0.5,-0.238281 1.148437,-0.425781 1.953125,-0.5625 0.550781,-0.082031 0.972656,-0.175781 1.265625,-0.28125 0.289063,-0.113281 0.484375,-0.238281 0.578125,-0.375 0.101562,-0.132812 0.15625,-0.304688 0.15625,-0.515625 0,-0.289063 -0.105469,-0.515625 -0.3125,-0.671875 C 5.570312,-7.5 5.226562,-7.578125 4.75,-7.578125 c -0.523438,0 -1.015625,0.117187 -1.484375,0.34375 -0.460937,0.230469 -0.859375,0.53125 -1.203125,0.90625 H 1.890625 l -0.96875,-1.46875 c 0.46875,-0.519531 1.039063,-0.925781 1.71875,-1.21875 0.675781,-0.289063 1.414063,-0.4375 2.21875,-0.4375 1.226563,0 2.117187,0.261719 2.671875,0.78125 0.550781,0.523437 0.828125,1.261719 0.828125,2.21875 v 4.03125 c 0,0.417969 0.179687,0.625 0.546875,0.625 0.132812,0 0.269531,-0.023437 0.40625,-0.078125 l 0.125,0.03125 0.171875,1.625 C 9.472656,-0.132812 9.289062,-0.0664062 9.0625,-0.015625 8.832031,0.0351562 8.582031,0.0625 8.3125,0.0625 7.75,0.0625 7.3125,-0.0390625 7,-0.25 6.6875,-0.46875 6.46875,-0.800781 6.34375,-1.25 L 6.15625,-1.265625 C 5.707031,-0.304688 4.863281,0.171875 3.625,0.171875 Z M 4.359375,-1.5625 c 0.539063,0 0.972656,-0.179688 1.296875,-0.546875 C 5.976562,-2.472656 6.140625,-2.976562 6.140625,-3.625 V -4.5625 L 5.96875,-4.59375 C 5.832031,-4.476562 5.648438,-4.382812 5.421875,-4.3125 5.191406,-4.238281 4.863281,-4.164062 4.4375,-4.09375 c -0.5,0.085938 -0.867188,0.230469 -1.09375,0.4375 -0.21875,0.210938 -0.328125,0.5 -0.328125,0.875 0,0.398438 0.117187,0.699219 0.359375,0.90625 0.238281,0.210938 0.566406,0.3125 0.984375,0.3125 z m 0,0"
           id="path74" />
      </g>
    </g>
    <g
       transform="translate(832.01758,410.99574)"
       id="g78">
      <g
         id="g77">
        <path
           d="M 3.859375,0.171875 C 3.015625,0.171875 2.375,-0.0507812 1.9375,-0.5 1.5,-0.945312 1.28125,-1.632812 1.28125,-2.5625 V -13.015625 H 3.609375 V -2.65625 c 0,0.574219 0.234375,0.859375 0.703125,0.859375 0.132812,0 0.28125,-0.023437 0.4375,-0.078125 l 0.109375,0.046875 0.21875,1.78125 c -0.136719,0.0703125 -0.3125,0.125 -0.53125,0.15625 -0.210937,0.039063 -0.4375,0.0625 -0.6875,0.0625 z m 0,0"
           id="path76" />
      </g>
    </g>
  </g>
  <rect
     style="fill:#000000;fill-opacity:0.1;stroke:#000000;stroke-width:0.75;stroke-dasharray:none;stroke-opacity:0.05"
     id="rect114"
     width="291.59998"
     height="95.727272"
     x="0.375"
     y="0.375" />
</svg>
